<?xml version="1.0" encoding="utf-8"?>
<!-- Generator: Adobe Illustrator 25.3.1, SVG Export Plug-In . SVG Version: 6.00 Build 0)  -->
<svg version="1.1" id="レイヤー_1" xmlns="http://www.w3.org/2000/svg" xmlns:xlink="http://www.w3.org/1999/xlink" x="0px"
	 y="0px" viewBox="0 0 85.04 85.04" style="enable-background:new 0 0 85.04 85.04;" xml:space="preserve">
<style type="text/css">
	.st0{clip-path:url(#SVGID_2_);fill:none;}
	.st1{clip-path:url(#SVGID_2_);fill-rule:evenodd;clip-rule:evenodd;fill:none;}
	.st2{clip-path:url(#SVGID_2_);fill:#FFFFFF;stroke:#8FC31F;stroke-width:0.25;stroke-miterlimit:10;}
	.st3{clip-path:url(#SVGID_2_);fill:none;stroke:#8FC31F;stroke-width:0.25;stroke-linejoin:round;stroke-miterlimit:10;}
	.st4{clip-path:url(#SVGID_2_);}
	.st5{fill:#FFFFFF;stroke:#8FC31F;stroke-width:0.25;stroke-miterlimit:10;}
	.st6{fill:none;stroke:#8FC31F;stroke-width:0.25;stroke-miterlimit:10;}
	.st7{fill:none;stroke:#8FC31F;stroke-width:0.25;stroke-linejoin:round;stroke-miterlimit:10;}
	.st8{fill:none;}
	.st9{fill:#8FC31F;}
	.st10{clip-path:url(#SVGID_2_);fill:none;stroke:#8FC31F;stroke-width:0.25;stroke-miterlimit:10;}
</style>
<g>
	<defs>
		<rect id="SVGID_1_" x="0" y="0" width="85.04" height="85.04"/>
	</defs>
	<clipPath id="SVGID_2_">
		<use xlink:href="#SVGID_1_"  style="overflow:visible;"/>
	</clipPath>
	<path class="st0" d="M75.12,73.75c-0.32,0-0.66,0.1-0.78,0.45h1.56C75.71,73.93,75.44,73.75,75.12,73.75z"/>
	<path class="st0" d="M59.66,28.25l-2.3-0.41c0,0-0.02,0.11-0.08,0.3l1.69,0.5C59.11,28.49,59.32,28.33,59.66,28.25z"/>
	<path class="st0" d="M60.84,32.25c0,0-0.15-0.05-0.39-0.11c-0.31,0.45-0.55,0.95-0.75,1.47c0.1,0.1,0.19,0.23,0.26,0.43
		L60.84,32.25z"/>
	<path class="st0" d="M49.74,34.92c0,0-0.01,0-0.01,0l-0.28,0.33l1.14,1.73h0.31c-0.37-0.86-0.74-1.46-0.74-1.46
		C50.04,35.29,49.9,35.1,49.74,34.92z"/>
	<rect x="3.89" y="-6.52" class="st1" width="85.04" height="85.04"/>
	<path class="st2" d="M-19.27,3.93c0-10.89,8.96-19.84,19.84-19.84S20.42-6.96,20.42,3.93"/>
	<path class="st2" d="M10.5,3.93c0-10.89,8.96-19.84,19.84-19.84S50.18-6.96,50.18,3.93"/>
	<path class="st3" d="M43.14,22.21c0.37-0.26,0.74-0.53,1.09-0.82s0.7-0.58,1.04-0.88h-0.11c0.34,0.3,0.68,0.6,1.04,0.88
		s0.72,0.56,1.09,0.82"/>
	<g class="st4">
		<path class="st5" d="M40.26,3.93c0-10.89,8.96-19.84,19.84-19.84S79.94-6.96,79.94,3.93"/>
		<path class="st5" d="M70.02,3.93c0-10.89,8.96-19.84,19.84-19.84s19.84,8.96,19.84,19.84"/>
		<path class="st6" d="M50.18,3.93c0-5.44,4.48-9.92,9.92-9.92s9.92,4.48,9.92,9.92"/>
		<path class="st6" d="M79.94,3.93c0-5.44,4.48-9.92,9.92-9.92s9.92,4.48,9.92,9.92"/>
		<path class="st7" d="M77.06-14.36c-0.37,0.26-0.74,0.53-1.09,0.82c-0.36,0.28-0.7,0.58-1.04,0.88h0.11
			c-0.34-0.3-0.68-0.6-1.04-0.88c-0.36-0.28-0.72-0.56-1.09-0.82"/>
		<path class="st7" d="M106.83-14.36c-0.37,0.26-0.74,0.53-1.09,0.82c-0.36,0.28-0.7,0.58-1.04,0.88h0.11
			c-0.34-0.3-0.68-0.6-1.04-0.88c-0.36-0.28-0.72-0.56-1.09-0.82"/>
		<path class="st6" d="M72.87-9.69c-0.64,0.82-1.49,1.89-2.01,2.79s-1.01,1.88-1.4,3c-0.3-0.58-0.89-1.25-1.39-1.67
			s-1.37-0.92-1.92-1.26c0.41-0.88,1-2.04,1.51-2.87s1.15-1.72,1.75-2.49c0.61,0.35,1.2,0.74,1.76,1.16
			C71.73-10.61,72.36-10.17,72.87-9.69z"/>
		<path class="st6" d="M102.63-9.69c-0.64,0.82-1.49,1.89-2.01,2.79s-1.01,1.88-1.4,3c-0.3-0.58-0.89-1.25-1.39-1.67
			s-1.37-0.92-1.92-1.26c0.41-0.88,1-2.04,1.51-2.87s1.15-1.72,1.75-2.49c0.61,0.35,1.2,0.74,1.76,1.16
			C101.5-10.61,102.12-10.17,102.63-9.69z"/>
		<path class="st5" d="M109.71,3.93c0,10.89-8.96,19.84-19.84,19.84S70.02,14.81,70.02,3.93"/>
		<path class="st5" d="M79.94,3.93c0,10.89-8.96,19.84-19.84,19.84S40.26,14.81,40.26,3.93"/>
		<path id="SVGID_x5F_3_x5F_" class="st8" d="M40.26,3.93c0,10.89,8.96,19.84,19.84,19.84s19.84-8.96,19.84-19.84
			c0-5.44,4.48-9.92,9.92-9.92s9.92,4.48,9.92,9.92"/>
		<text>		<textPath  xlink:href="#SVGID_x5F_3_x5F_" startOffset="18.0447%">
<tspan  class="st9" style="font-family:'ShinGoPro-ExLight-90ms-RKSJ-H'; font-size:7px;">じょうほ</tspan><tspan  class="st9" style="font-family:'ShinGoPro-ExLight-90ms-RKSJ-H'; font-size:7px; letter-spacing:-100;">う</tspan><tspan  class="st9" style="font-family:'ShinGoPro-ExLight-90ms-RKSJ-H'; font-size:7px; letter-spacing:-300;">ぎじゅつ</tspan>		</textPath>
</text>
		<path class="st6" d="M70.02,3.93c0,5.44-4.48,9.92-9.92,9.92s-9.92-4.48-9.92-9.92"/>
		<path class="st6" d="M99.79,3.93c0,5.44-4.48,9.92-9.92,9.92s-9.92-4.48-9.92-9.92"/>
		<path class="st6" d="M47.33,17.55c0.64-0.82,1.49-1.89,2.01-2.79c0.52-0.9,1.01-1.88,1.4-3c0.3,0.58,0.89,1.25,1.39,1.67
			c0.5,0.42,1.37,0.92,1.92,1.26c-0.41,0.88-1,2.04-1.51,2.87c-0.51,0.83-1.15,1.72-1.75,2.49c-0.61-0.35-1.2-0.74-1.76-1.16
			C48.47,18.46,47.85,18.03,47.33,17.55z"/>
		<path class="st6" d="M77.1,17.55c0.64-0.82,1.49-1.89,2.01-2.79c0.52-0.9,1.01-1.88,1.4-3c0.3,0.58,0.89,1.25,1.39,1.67
			c0.5,0.42,1.37,0.92,1.92,1.26c-0.41,0.88-1,2.04-1.51,2.87s-1.15,1.72-1.75,2.49c-0.61-0.35-1.2-0.74-1.76-1.16
			C78.23,18.46,77.61,18.03,77.1,17.55z"/>
		<path class="st7" d="M72.91,22.21c0.37-0.26,0.74-0.53,1.09-0.82c0.36-0.28,0.7-0.58,1.04-0.88h-0.11c0.34,0.3,0.68,0.6,1.04,0.88
			c0.36,0.28,0.72,0.56,1.09,0.82"/>
		<path class="st7" d="M102.67,22.21c0.37-0.26,0.74-0.53,1.09-0.82c0.36-0.28,0.7-0.58,1.04-0.88h-0.11
			c0.34,0.3,0.68,0.6,1.04,0.88c0.36,0.28,0.72,0.56,1.09,0.82"/>
		<path id="SVGID_x5F_4_x5F_" class="st8" d="M50.18,3.93c0-5.44,4.48-9.92,9.92-9.92s9.92,4.48,9.92,9.92"/>
		<text>		<textPath  xlink:href="#SVGID_x5F_4_x5F_" startOffset="0%">
<tspan  class="st9" style="font-family:'ShinGoPr6-ExLight-90ms-RKSJ-H'; font-size:7px; letter-spacing:-280;">・りか</tspan>		</textPath>
</text>
		<path id="SVGID_x5F_5_x5F_" class="st8" d="M99.79,3.93c0,5.44-4.48,9.92-9.92,9.92s-9.92-4.48-9.92-9.92"/>
		<text>		<textPath  xlink:href="#SVGID_x5F_5_x5F_" startOffset="0%">
<tspan  class="st9" style="font-family:'ShinGoPr6-ExLight-90ms-RKSJ-H'; font-size:7px; letter-spacing:-225;">うどつて</tspan>		</textPath>
</text>
		<g>
			<path class="st9" d="M53.97,0.33c-0.09-0.06-0.18-0.1-0.26-0.1c-0.31,0-0.53,0.45-0.53,1.08c0,0.46,0.11,1.02,0.38,1.6
				c0.24,0.5,0.51,1.04,0.8,1.68c0.34,0.76,0.48,1.6,0.48,2.37c0,1.46-0.52,2.66-1.31,2.66c-0.16,0-0.33-0.06-0.5-0.15
				C53,9.45,52.98,9.45,52.95,9.45c-0.08,0-0.12,0.08-0.21,0.08c-0.16,0-0.26-0.17-0.29-0.49c-0.03-0.42-0.12-1.47-0.14-1.93V7.04
				c0-0.38,0.13-0.6,0.27-0.6c0.12,0,0.24,0.15,0.28,0.5c0.1,0.73,0.18,0.97,0.33,1.11c0.12,0.1,0.24,0.15,0.35,0.15
				c0.35,0,0.64-0.48,0.64-1.22c0-0.45-0.1-0.98-0.35-1.55c-0.27-0.62-0.49-1.02-0.81-1.74c-0.3-0.69-0.45-1.57-0.45-2.38
				c0-1.29,0.38-2.42,1.11-2.42c0.1,0,0.21,0.03,0.32,0.07c0.03,0.01,0.1,0.07,0.14,0.07c0.01,0,0.02,0,0.03-0.01
				c0.07-0.08,0.15-0.13,0.21-0.13c0.13,0,0.25,0.15,0.28,0.52c0.02,0.25,0.06,1,0.08,1.37v0.08c0,0.39-0.13,0.66-0.27,0.66
				c-0.1,0-0.2-0.13-0.26-0.41c-0.02-0.1-0.03-0.25-0.07-0.41C54.12,0.54,54.06,0.4,53.97,0.33z"/>
			<path class="st9" d="M57.52,0.15c-0.12,0.01-0.21,0.08-0.21,0.38C57.3,1.47,57.3,2.74,57.3,4.05c0,1.32,0,2.63,0.01,3.67v0.1
				c0.01,0.28,0.1,0.38,0.23,0.38c0.17,0,0.26,0.34,0.26,0.67c0,0.32-0.09,0.66-0.29,0.66c-0.18,0-0.37-0.01-0.52-0.01h-0.09
				c-0.13,0-0.31,0.01-0.44,0.01c-0.2,0-0.29-0.32-0.29-0.64c0-0.35,0.1-0.69,0.27-0.69c0.13,0,0.23-0.07,0.27-0.43
				c0.01-1.18,0.01-2.73,0.01-4.26c0-1.13-0.01-2.2-0.01-2.94c0-0.36-0.03-0.41-0.2-0.41c-0.11,0-0.25,0.01-0.38,0.04
				c-0.2,0.03-0.36,0.43-0.43,0.88c-0.05,0.35-0.17,0.52-0.29,0.52c-0.13,0-0.25-0.22-0.25-0.67c0-0.04,0-0.1,0.01-0.15
				c0.02-0.35,0.07-0.74,0.1-1.12c0.05-0.56,0.18-0.7,0.31-0.7c0.07,0,0.14,0.03,0.2,0.07c0.05,0.03,0.08,0.07,0.12,0.07
				c0.01,0,0.03-0.01,0.04-0.01C56.12-0.98,56.43-1,56.72-1c0.19-0.01,0.41-0.01,0.56-0.01c0.21,0.01,0.48,0,0.66,0.06H58
				c0.05,0,0.09-0.01,0.13-0.07c0.04-0.04,0.11-0.1,0.19-0.1c0.14,0,0.31,0.15,0.35,0.69c0.03,0.38,0.07,0.64,0.09,0.99
				c0.01,0.07,0.01,0.13,0.01,0.18c0,0.48-0.12,0.71-0.26,0.71c-0.1,0-0.21-0.15-0.26-0.46c-0.1-0.53-0.25-0.78-0.39-0.8
				C57.72,0.17,57.6,0.15,57.52,0.15z"/>
			<path class="st9" d="M60.73,8.24c0.15,0,0.31,0,0.39-0.01c0.3-0.03,0.41-0.56,0.41-0.9V7.3c0-0.52,0.15-0.77,0.31-0.77
				c0.15,0,0.31,0.25,0.31,0.77v0.04c0,0.84-0.19,2.16-0.96,2.18h-0.13c-0.38,0-0.82-0.03-1.19-0.03c-0.21,0-0.39,0.01-0.52,0.04
				c-0.02,0-0.03,0.01-0.05,0.01c-0.2,0-0.3-0.35-0.3-0.69c0-0.35,0.1-0.7,0.31-0.7h0.03c0.15,0,0.17-0.28,0.17-0.56
				c0-0.1-0.01-0.2-0.01-0.29c0-1.25,0.01-4.97,0.01-6.23v-0.2c0-0.25-0.01-0.55-0.13-0.56c-0.22,0-0.33-0.35-0.33-0.69
				c0-0.32,0.1-0.64,0.31-0.64h0.04c0.14,0.03,0.29,0.04,0.44,0.04c0.15,0,0.3-0.01,0.45-0.03c0.11,0,0.22-0.01,0.33-0.01
				c0.17,0,0.32,0.01,0.45,0.07c0.07,0.03,0.12,0.04,0.16,0.04c0.04,0,0.07-0.01,0.11-0.06c0.05-0.06,0.12-0.1,0.2-0.1
				c0.13,0,0.27,0.13,0.3,0.56c0.03,0.38,0.06,0.66,0.06,1.01v0.11c0,0.53-0.13,0.81-0.27,0.81c-0.1,0-0.21-0.15-0.26-0.48
				c-0.07-0.41-0.26-0.67-0.54-0.7c-0.07,0-0.15-0.01-0.23-0.01c-0.12,0-0.24,0.01-0.31,0.03c-0.19,0.04-0.2,0.2-0.21,0.55
				c-0.01,0.35-0.01,1.34-0.02,2.16c0,0.21,0.02,0.25,0.1,0.28c0.03,0,0.11,0.01,0.2,0.01c0.13,0,0.29-0.01,0.38-0.03
				c0.07-0.01,0.16-0.08,0.16-0.22c0.03-0.41,0.15-0.59,0.27-0.59c0.12,0,0.25,0.21,0.25,0.59v0.04c-0.01,0.28-0.01,0.53-0.01,0.8
				c0,0.27,0.01,0.52,0.01,0.79v0.04c0,0.41-0.12,0.63-0.25,0.63c-0.12,0-0.24-0.18-0.27-0.56c-0.01-0.11-0.08-0.18-0.16-0.2
				c-0.1-0.03-0.22-0.04-0.31-0.04c-0.13,0-0.24,0.01-0.27,0.04c-0.09,0.03-0.1,0.14-0.1,0.28c0,1.05,0.01,2.35,0.01,2.88
				c0.01,0.22,0.03,0.48,0.26,0.49C60.42,8.24,60.57,8.24,60.73,8.24z"/>
			<path class="st9" d="M66.61,1.65c-0.01-0.14-0.03-0.22-0.05-0.22s-0.05,0.07-0.07,0.22c-0.19,1.74-0.5,4.64-0.68,6.11
				c-0.11,0.83-0.37,1.25-0.63,1.25s-0.53-0.42-0.63-1.25c-0.19-1.47-0.5-4.4-0.69-6.13c-0.02-0.18-0.04-0.25-0.07-0.25
				s-0.04,0.1-0.06,0.27c-0.07,1.54-0.19,4.37-0.27,6.19v0.06c0,0.14,0.02,0.31,0.13,0.31c0.16,0,0.25,0.34,0.25,0.67
				s-0.08,0.66-0.27,0.66c-0.16,0-0.3-0.01-0.44-0.01h-0.08c-0.12,0-0.28,0.01-0.4,0.01c-0.19,0-0.28-0.35-0.28-0.69
				c0-0.34,0.08-0.67,0.25-0.67c0.14,0,0.21-0.17,0.25-0.43c0.12-2.23,0.29-5.06,0.39-6.86V0.78c0-0.24-0.04-0.36-0.12-0.36h-0.05
				c-0.21,0-0.3-0.35-0.3-0.7c0-0.36,0.1-0.74,0.3-0.74h0.18c0.46,0,0.83,0.1,0.96,1.18c0.2,1.68,0.73,6.15,0.83,6.89
				c0.03,0.2,0.07,0.29,0.12,0.29s0.09-0.1,0.12-0.29c0.11-0.74,0.64-5.21,0.84-6.89c0.12-1.08,0.49-1.18,0.96-1.18h0.17
				c0.2,0,0.3,0.35,0.3,0.71s-0.1,0.73-0.31,0.73h-0.03c-0.08,0-0.12,0.14-0.12,0.36v0.08c0.08,1.81,0.26,4.64,0.38,6.86
				c0.04,0.27,0.11,0.43,0.25,0.43c0.16,0,0.25,0.34,0.25,0.67c0,0.35-0.09,0.69-0.28,0.69c-0.12,0-0.28-0.01-0.4-0.01h-0.08
				c-0.13,0-0.28,0.01-0.44,0.01c-0.18,0-0.27-0.32-0.27-0.66s0.09-0.67,0.25-0.67c0.1,0,0.13-0.18,0.13-0.32
				c0-0.04-0.01-0.07-0.01-0.13C66.79,5.92,66.67,3.16,66.61,1.65z"/>
		</g>
		<g>
			<path class="st9" d="M83.73,0.33c-0.09-0.06-0.18-0.1-0.26-0.1c-0.31,0-0.53,0.45-0.53,1.08c0,0.46,0.11,1.02,0.38,1.6
				c0.24,0.5,0.51,1.04,0.8,1.68c0.34,0.76,0.48,1.6,0.48,2.37c0,1.46-0.52,2.66-1.31,2.66c-0.16,0-0.33-0.06-0.5-0.15
				c-0.02-0.01-0.04-0.01-0.07-0.01c-0.08,0-0.12,0.08-0.21,0.08c-0.16,0-0.26-0.17-0.29-0.49c-0.03-0.42-0.12-1.47-0.14-1.93V7.04
				c0-0.38,0.13-0.6,0.27-0.6c0.12,0,0.24,0.15,0.28,0.5c0.1,0.73,0.18,0.97,0.33,1.11c0.12,0.1,0.24,0.15,0.35,0.15
				c0.35,0,0.64-0.48,0.64-1.22c0-0.45-0.1-0.98-0.35-1.55c-0.27-0.62-0.49-1.02-0.81-1.74c-0.3-0.69-0.45-1.57-0.45-2.38
				c0-1.29,0.38-2.42,1.11-2.42c0.1,0,0.21,0.03,0.32,0.07c0.03,0.01,0.1,0.07,0.14,0.07c0.01,0,0.02,0,0.03-0.01
				c0.07-0.08,0.15-0.13,0.21-0.13c0.13,0,0.25,0.15,0.28,0.52c0.02,0.25,0.06,1,0.08,1.37v0.08c0,0.39-0.13,0.66-0.27,0.66
				c-0.1,0-0.2-0.13-0.26-0.41c-0.02-0.1-0.03-0.25-0.07-0.41C83.88,0.54,83.83,0.4,83.73,0.33z"/>
			<path class="st9" d="M87.29,0.15c-0.12,0.01-0.21,0.08-0.21,0.38c-0.01,0.94-0.01,2.21-0.01,3.52c0,1.32,0,2.63,0.01,3.67v0.1
				c0.01,0.28,0.1,0.38,0.23,0.38c0.17,0,0.26,0.34,0.26,0.67c0,0.32-0.09,0.66-0.29,0.66c-0.18,0-0.37-0.01-0.52-0.01h-0.09
				c-0.13,0-0.31,0.01-0.44,0.01c-0.2,0-0.29-0.32-0.29-0.64c0-0.35,0.1-0.69,0.27-0.69c0.13,0,0.23-0.07,0.27-0.43
				c0.01-1.18,0.01-2.73,0.01-4.26c0-1.13-0.01-2.2-0.01-2.94c0-0.36-0.03-0.41-0.2-0.41c-0.11,0-0.25,0.01-0.38,0.04
				c-0.2,0.03-0.36,0.43-0.43,0.88C85.43,1.43,85.31,1.6,85.2,1.6c-0.13,0-0.25-0.22-0.25-0.67c0-0.04,0-0.1,0.01-0.15
				c0.02-0.35,0.07-0.74,0.1-1.12c0.05-0.56,0.18-0.7,0.31-0.7c0.07,0,0.14,0.03,0.2,0.07c0.05,0.03,0.08,0.07,0.12,0.07
				c0.01,0,0.03-0.01,0.04-0.01C85.88-0.98,86.19-1,86.49-1c0.19-0.01,0.41-0.01,0.56-0.01c0.21,0.01,0.48,0,0.66,0.06h0.06
				c0.05,0,0.09-0.01,0.13-0.07c0.04-0.04,0.11-0.1,0.19-0.1c0.14,0,0.31,0.15,0.35,0.69c0.03,0.38,0.07,0.64,0.09,0.99
				c0.01,0.07,0.01,0.13,0.01,0.18c0,0.48-0.12,0.71-0.26,0.71c-0.1,0-0.21-0.15-0.26-0.46c-0.1-0.53-0.25-0.78-0.39-0.8
				C87.48,0.17,87.36,0.15,87.29,0.15z"/>
			<path class="st9" d="M90.5,8.24c0.15,0,0.31,0,0.39-0.01c0.3-0.03,0.41-0.56,0.41-0.9V7.3c0-0.52,0.15-0.77,0.31-0.77
				c0.15,0,0.31,0.25,0.31,0.77v0.04c0,0.84-0.19,2.16-0.96,2.18h-0.13c-0.38,0-0.82-0.03-1.19-0.03c-0.21,0-0.39,0.01-0.52,0.04
				c-0.02,0-0.03,0.01-0.05,0.01c-0.2,0-0.3-0.35-0.3-0.69c0-0.35,0.1-0.7,0.31-0.7h0.03c0.15,0,0.17-0.28,0.17-0.56
				c0-0.1-0.01-0.2-0.01-0.29c0-1.25,0.01-4.97,0.01-6.23v-0.2c0-0.25-0.01-0.55-0.13-0.56c-0.22,0-0.33-0.35-0.33-0.69
				c0-0.32,0.1-0.64,0.31-0.64h0.04c0.14,0.03,0.29,0.04,0.44,0.04c0.15,0,0.3-0.01,0.45-0.03c0.11,0,0.22-0.01,0.33-0.01
				c0.17,0,0.32,0.01,0.45,0.07c0.07,0.03,0.12,0.04,0.16,0.04c0.04,0,0.07-0.01,0.11-0.06c0.05-0.06,0.12-0.1,0.2-0.1
				c0.13,0,0.27,0.13,0.3,0.56c0.03,0.38,0.06,0.66,0.06,1.01v0.11c0,0.53-0.13,0.81-0.27,0.81c-0.1,0-0.21-0.15-0.26-0.48
				c-0.07-0.41-0.26-0.67-0.54-0.7c-0.07,0-0.15-0.01-0.23-0.01c-0.12,0-0.24,0.01-0.31,0.03c-0.19,0.04-0.2,0.2-0.21,0.55
				c-0.01,0.35-0.01,1.34-0.02,2.16c0,0.21,0.02,0.25,0.1,0.28c0.03,0,0.11,0.01,0.2,0.01c0.13,0,0.29-0.01,0.38-0.03
				c0.07-0.01,0.16-0.08,0.16-0.22c0.03-0.41,0.15-0.59,0.27-0.59c0.12,0,0.25,0.21,0.25,0.59v0.04c-0.01,0.28-0.01,0.53-0.01,0.8
				c0,0.27,0.01,0.52,0.01,0.79v0.04c0,0.41-0.12,0.63-0.25,0.63c-0.12,0-0.24-0.18-0.27-0.56c-0.01-0.11-0.08-0.18-0.16-0.2
				c-0.1-0.03-0.22-0.04-0.31-0.04c-0.13,0-0.24,0.01-0.27,0.04c-0.09,0.03-0.1,0.14-0.1,0.28c0,1.05,0.01,2.35,0.01,2.88
				c0.01,0.22,0.03,0.48,0.26,0.49C90.18,8.24,90.34,8.24,90.5,8.24z"/>
			<path class="st9" d="M96.37,1.65c-0.01-0.14-0.03-0.22-0.05-0.22s-0.05,0.07-0.07,0.22c-0.19,1.74-0.5,4.64-0.68,6.11
				c-0.11,0.83-0.37,1.25-0.63,1.25s-0.53-0.42-0.63-1.25c-0.19-1.47-0.5-4.4-0.69-6.13c-0.02-0.18-0.04-0.25-0.07-0.25
				s-0.04,0.1-0.06,0.27c-0.07,1.54-0.19,4.37-0.27,6.19v0.06c0,0.14,0.02,0.31,0.13,0.31c0.16,0,0.25,0.34,0.25,0.67
				s-0.08,0.66-0.27,0.66c-0.16,0-0.3-0.01-0.44-0.01h-0.08c-0.12,0-0.28,0.01-0.4,0.01c-0.19,0-0.28-0.35-0.28-0.69
				c0-0.34,0.08-0.67,0.25-0.67c0.14,0,0.21-0.17,0.25-0.43c0.12-2.23,0.29-5.06,0.39-6.86V0.78c0-0.24-0.04-0.36-0.12-0.36h-0.05
				c-0.21,0-0.3-0.35-0.3-0.7c0-0.36,0.1-0.74,0.3-0.74h0.18c0.46,0,0.83,0.1,0.96,1.18c0.2,1.68,0.73,6.15,0.83,6.89
				c0.03,0.2,0.07,0.29,0.12,0.29s0.09-0.1,0.12-0.29c0.11-0.74,0.64-5.21,0.84-6.89c0.12-1.08,0.49-1.18,0.96-1.18h0.17
				c0.2,0,0.3,0.35,0.3,0.71S97.22,0.42,97,0.42h-0.03c-0.08,0-0.12,0.14-0.12,0.36v0.08c0.08,1.81,0.26,4.64,0.38,6.86
				c0.04,0.27,0.11,0.43,0.25,0.43c0.16,0,0.25,0.34,0.25,0.67c0,0.35-0.09,0.69-0.28,0.69c-0.12,0-0.28-0.01-0.4-0.01h-0.08
				c-0.13,0-0.28,0.01-0.44,0.01c-0.18,0-0.27-0.32-0.27-0.66s0.09-0.67,0.25-0.67c0.1,0,0.13-0.18,0.13-0.32
				c0-0.04-0.01-0.07-0.01-0.13C96.55,5.92,96.43,3.16,96.37,1.65z"/>
		</g>
	</g>
	<path class="st10" d="M-9.35,3.93c0-5.44,4.48-9.92,9.92-9.92s9.92,4.48,9.92,9.92"/>
	<path class="st10" d="M20.42,3.93c0-5.44,4.48-9.92,9.92-9.92s9.92,4.48,9.92,9.92"/>
	<path class="st3" d="M17.53-14.36c-0.37,0.26-0.74,0.53-1.09,0.82c-0.36,0.28-0.7,0.58-1.04,0.88h0.11
		c-0.34-0.3-0.68-0.6-1.04-0.88c-0.36-0.28-0.72-0.56-1.09-0.82"/>
	<path class="st3" d="M47.3-14.36c-0.37,0.26-0.74,0.53-1.09,0.82c-0.36,0.28-0.7,0.58-1.04,0.88h0.11c-0.34-0.3-0.68-0.6-1.04-0.88
		c-0.36-0.28-0.72-0.56-1.09-0.82"/>
	<path class="st10" d="M13.34-9.69C12.7-8.87,11.85-7.8,11.34-6.9s-1.01,1.88-1.4,3c-0.3-0.58-0.89-1.25-1.39-1.67
		S7.18-6.49,6.62-6.83c0.41-0.88,1-2.04,1.51-2.87s1.15-1.72,1.75-2.49c0.61,0.35,1.2,0.74,1.76,1.16
		C12.2-10.61,12.83-10.17,13.34-9.69z"/>
	<path class="st10" d="M43.11-9.69C42.47-8.87,41.62-7.8,41.1-6.9c-0.52,0.9-1.01,1.88-1.4,3c-0.3-0.58-0.89-1.25-1.39-1.67
		c-0.5-0.42-1.37-0.92-1.92-1.26c0.41-0.88,1-2.04,1.51-2.87c0.51-0.83,1.15-1.72,1.75-2.49c0.61,0.35,1.2,0.74,1.76,1.16
		C41.97-10.61,42.59-10.17,43.11-9.69z"/>
	<path class="st2" d="M50.18,3.93c0,10.89-8.96,19.84-19.84,19.84S10.5,14.81,10.5,3.93"/>
	<path class="st2" d="M20.42,3.93c0,10.89-8.96,19.84-19.84,19.84s-19.84-8.96-19.84-19.84"/>
	<g class="st4">
		<path id="SVGID_x5F_6_x5F_" class="st8" d="M-19.27,3.93c0,10.89,8.96,19.84,19.84,19.84s19.84-8.96,19.84-19.84
			c0-5.44,4.48-9.92,9.92-9.92s9.92,4.48,9.92,9.92"/>
		<text>		<textPath  xlink:href="#SVGID_x5F_6_x5F_" startOffset="18.0447%">
<tspan  class="st9" style="font-family:'ShinGoPro-ExLight-90ms-RKSJ-H'; font-size:7px;">じょうほ</tspan><tspan  class="st9" style="font-family:'ShinGoPro-ExLight-90ms-RKSJ-H'; font-size:7px; letter-spacing:-100;">う</tspan><tspan  class="st9" style="font-family:'ShinGoPro-ExLight-90ms-RKSJ-H'; font-size:7px; letter-spacing:-300;">ぎじゅつ</tspan>		</textPath>
</text>
	</g>
	<path class="st10" d="M10.5,3.93c0,5.44-4.48,9.92-9.92,9.92s-9.92-4.48-9.92-9.92"/>
	<path class="st10" d="M40.26,3.93c0,5.44-4.48,9.92-9.92,9.92s-9.92-4.48-9.92-9.92"/>
	<path class="st10" d="M-12.19,17.55c0.64-0.82,1.49-1.89,2.01-2.79c0.52-0.9,1.01-1.88,1.4-3c0.3,0.58,0.89,1.25,1.39,1.67
		s1.37,0.92,1.92,1.26c-0.41,0.88-1,2.04-1.51,2.87s-1.15,1.72-1.75,2.49c-0.61-0.35-1.2-0.74-1.76-1.16S-11.68,18.03-12.19,17.55z"
		/>
	<path class="st10" d="M17.57,17.55c0.64-0.82,1.49-1.89,2.01-2.79c0.52-0.9,1.01-1.88,1.4-3c0.3,0.58,0.89,1.25,1.39,1.67
		s1.37,0.92,1.92,1.26c-0.41,0.88-1,2.04-1.51,2.87c-0.51,0.83-1.15,1.72-1.75,2.49c-0.61-0.35-1.2-0.74-1.76-1.16
		S18.08,18.03,17.57,17.55z"/>
	<path class="st3" d="M13.38,22.21c0.37-0.26,0.74-0.53,1.09-0.82c0.36-0.28,0.7-0.58,1.04-0.88H15.4c0.34,0.3,0.68,0.6,1.04,0.88
		s0.72,0.56,1.09,0.82"/>
	<g class="st4">
		<path id="SVGID_x5F_7_x5F_" class="st8" d="M-9.35,3.93c0-5.44,4.48-9.92,9.92-9.92s9.92,4.48,9.92,9.92"/>
		<text>		<textPath  xlink:href="#SVGID_x5F_7_x5F_" startOffset="0%">
<tspan  class="st9" style="font-family:'ShinGoPr6-ExLight-90ms-RKSJ-H'; font-size:7px; letter-spacing:-280;">・りか</tspan>		</textPath>
</text>
	</g>
	<g class="st4">
		<path class="st9" d="M-5.56,0.33c-0.09-0.06-0.18-0.1-0.26-0.1c-0.31,0-0.53,0.45-0.53,1.08c0,0.46,0.11,1.02,0.38,1.6
			c0.24,0.5,0.51,1.04,0.8,1.68c0.34,0.76,0.48,1.6,0.48,2.37c0,1.46-0.52,2.66-1.31,2.66c-0.16,0-0.33-0.06-0.5-0.15
			c-0.02-0.01-0.04-0.01-0.07-0.01c-0.08,0-0.12,0.08-0.21,0.08c-0.16,0-0.26-0.17-0.29-0.49C-7.1,8.63-7.18,7.58-7.21,7.11V7.04
			c0-0.38,0.13-0.6,0.27-0.6c0.12,0,0.24,0.15,0.28,0.5c0.1,0.73,0.18,0.97,0.33,1.11c0.12,0.1,0.24,0.15,0.35,0.15
			c0.35,0,0.64-0.48,0.64-1.22c0-0.45-0.1-0.98-0.35-1.55C-5.96,4.82-6.18,4.41-6.5,3.7c-0.3-0.69-0.45-1.57-0.45-2.38
			c0-1.29,0.38-2.42,1.11-2.42c0.1,0,0.21,0.03,0.32,0.07c0.03,0.01,0.1,0.07,0.14,0.07c0.01,0,0.02,0,0.03-0.01
			c0.07-0.08,0.15-0.13,0.21-0.13c0.13,0,0.25,0.15,0.28,0.52c0.02,0.25,0.06,1,0.08,1.37v0.08c0,0.39-0.13,0.66-0.27,0.66
			c-0.1,0-0.2-0.13-0.26-0.41c-0.02-0.1-0.03-0.25-0.07-0.41C-5.41,0.54-5.47,0.4-5.56,0.33z"/>
		<path class="st9" d="M-2,0.15c-0.12,0.01-0.21,0.08-0.21,0.38c-0.01,0.94-0.01,2.21-0.01,3.52c0,1.32,0,2.63,0.01,3.67v0.1
			c0.01,0.28,0.1,0.38,0.23,0.38c0.17,0,0.26,0.34,0.26,0.67c0,0.32-0.09,0.66-0.29,0.66c-0.18,0-0.37-0.01-0.52-0.01h-0.09
			c-0.13,0-0.31,0.01-0.44,0.01c-0.2,0-0.29-0.32-0.29-0.64c0-0.35,0.1-0.69,0.27-0.69c0.13,0,0.23-0.07,0.27-0.43
			C-2.81,6.58-2.8,5.03-2.8,3.5c0-1.13-0.01-2.2-0.01-2.94c0-0.36-0.03-0.41-0.2-0.41c-0.11,0-0.25,0.01-0.38,0.04
			c-0.2,0.03-0.36,0.43-0.43,0.88C-3.86,1.43-3.98,1.6-4.09,1.6c-0.13,0-0.25-0.22-0.25-0.67c0-0.04,0-0.1,0.01-0.15
			c0.02-0.35,0.07-0.74,0.1-1.12c0.05-0.56,0.18-0.7,0.31-0.7c0.07,0,0.14,0.03,0.2,0.07c0.05,0.03,0.08,0.07,0.12,0.07
			c0.01,0,0.03-0.01,0.04-0.01C-3.41-0.98-3.1-1-2.81-1c0.19-0.01,0.41-0.01,0.56-0.01c0.21,0.01,0.48,0,0.66,0.06h0.06
			c0.05,0,0.09-0.01,0.13-0.07c0.04-0.04,0.11-0.1,0.19-0.1c0.14,0,0.31,0.15,0.35,0.69c0.03,0.38,0.07,0.64,0.09,0.99
			c0.01,0.07,0.01,0.13,0.01,0.18c0,0.48-0.12,0.71-0.26,0.71c-0.1,0-0.21-0.15-0.26-0.46c-0.1-0.53-0.25-0.78-0.39-0.8
			C-1.81,0.17-1.93,0.15-2,0.15z"/>
		<path class="st9" d="M1.2,8.24c0.15,0,0.31,0,0.39-0.01C1.89,8.19,2,7.66,2,7.32V7.3c0-0.52,0.15-0.77,0.31-0.77
			c0.15,0,0.31,0.25,0.31,0.77v0.04c0,0.84-0.19,2.16-0.96,2.18H1.53c-0.38,0-0.82-0.03-1.19-0.03c-0.21,0-0.39,0.01-0.52,0.04
			c-0.02,0-0.03,0.01-0.05,0.01c-0.2,0-0.3-0.35-0.3-0.69c0-0.35,0.1-0.7,0.31-0.7h0.03C-0.02,8.16,0,7.88,0,7.6
			c0-0.1-0.01-0.2-0.01-0.29C-0.01,6.06,0,2.34,0,1.08v-0.2c0-0.25-0.01-0.55-0.13-0.56c-0.22,0-0.33-0.35-0.33-0.69
			c0-0.32,0.1-0.64,0.31-0.64h0.04c0.14,0.03,0.29,0.04,0.44,0.04c0.15,0,0.3-0.01,0.45-0.03C0.9-1,1.01-1.01,1.11-1.01
			c0.17,0,0.32,0.01,0.45,0.07C1.63-0.91,1.68-0.9,1.72-0.9c0.04,0,0.07-0.01,0.11-0.06c0.05-0.06,0.12-0.1,0.2-0.1
			c0.13,0,0.27,0.13,0.3,0.56c0.03,0.38,0.06,0.66,0.06,1.01v0.11c0,0.53-0.13,0.81-0.27,0.81c-0.1,0-0.21-0.15-0.26-0.48
			c-0.07-0.41-0.26-0.67-0.54-0.7c-0.07,0-0.15-0.01-0.23-0.01c-0.12,0-0.24,0.01-0.31,0.03c-0.19,0.04-0.2,0.2-0.21,0.55
			C0.55,1.17,0.56,2.17,0.55,2.98c0,0.21,0.02,0.25,0.1,0.28c0.03,0,0.11,0.01,0.2,0.01c0.13,0,0.29-0.01,0.38-0.03
			c0.07-0.01,0.16-0.08,0.16-0.22c0.03-0.41,0.15-0.59,0.27-0.59c0.12,0,0.25,0.21,0.25,0.59v0.04C1.9,3.35,1.89,3.6,1.89,3.86
			c0,0.27,0.01,0.52,0.01,0.79v0.04c0,0.41-0.12,0.63-0.25,0.63c-0.12,0-0.24-0.18-0.27-0.56C1.38,4.65,1.3,4.58,1.23,4.57
			c-0.1-0.03-0.22-0.04-0.31-0.04c-0.13,0-0.24,0.01-0.27,0.04c-0.09,0.03-0.1,0.14-0.1,0.28c0,1.05,0.01,2.35,0.01,2.88
			c0.01,0.22,0.03,0.48,0.26,0.49C0.89,8.24,1.05,8.24,1.2,8.24z"/>
		<path class="st9" d="M7.08,1.65C7.07,1.51,7.05,1.43,7.03,1.43S6.98,1.5,6.96,1.65c-0.19,1.74-0.5,4.64-0.68,6.11
			C6.17,8.58,5.91,9.01,5.64,9.01S5.12,8.58,5.02,7.76c-0.19-1.47-0.5-4.4-0.69-6.13C4.31,1.44,4.28,1.37,4.26,1.37
			s-0.04,0.1-0.06,0.27C4.14,3.18,4.02,6.01,3.93,7.83v0.06c0,0.14,0.02,0.31,0.13,0.31c0.16,0,0.25,0.34,0.25,0.67
			S4.23,9.52,4.04,9.52c-0.16,0-0.3-0.01-0.44-0.01H3.53c-0.12,0-0.28,0.01-0.4,0.01c-0.19,0-0.28-0.35-0.28-0.69
			c0-0.34,0.08-0.67,0.25-0.67C3.23,8.16,3.3,8,3.34,7.73C3.46,5.5,3.63,2.67,3.72,0.87V0.78c0-0.24-0.04-0.36-0.12-0.36H3.56
			c-0.21,0-0.3-0.35-0.3-0.7c0-0.36,0.1-0.74,0.3-0.74h0.18c0.46,0,0.83,0.1,0.96,1.18c0.2,1.68,0.73,6.15,0.83,6.89
			c0.03,0.2,0.07,0.29,0.12,0.29s0.09-0.1,0.12-0.29C5.87,6.3,6.41,1.83,6.6,0.15C6.73-0.93,7.1-1.02,7.56-1.02h0.17
			c0.2,0,0.3,0.35,0.3,0.71s-0.1,0.73-0.31,0.73H7.68c-0.08,0-0.12,0.14-0.12,0.36v0.08C7.65,2.67,7.82,5.5,7.95,7.73
			C7.99,8,8.05,8.16,8.2,8.16c0.16,0,0.25,0.34,0.25,0.67c0,0.35-0.09,0.69-0.28,0.69c-0.12,0-0.28-0.01-0.4-0.01H7.68
			c-0.13,0-0.28,0.01-0.44,0.01c-0.18,0-0.27-0.32-0.27-0.66s0.09-0.67,0.25-0.67c0.1,0,0.13-0.18,0.13-0.32
			c0-0.04-0.01-0.07-0.01-0.13C7.26,5.92,7.14,3.16,7.08,1.65z"/>
	</g>
	<g class="st4">
		<path class="st9" d="M24.2,0.33c-0.09-0.06-0.18-0.1-0.26-0.1c-0.31,0-0.53,0.45-0.53,1.08c0,0.46,0.11,1.02,0.38,1.6
			c0.24,0.5,0.51,1.04,0.8,1.68c0.34,0.76,0.48,1.6,0.48,2.37c0,1.46-0.52,2.66-1.31,2.66c-0.16,0-0.33-0.06-0.5-0.15
			c-0.02-0.01-0.04-0.01-0.07-0.01c-0.08,0-0.12,0.08-0.21,0.08c-0.16,0-0.26-0.17-0.29-0.49c-0.03-0.42-0.12-1.47-0.14-1.93V7.04
			c0-0.38,0.13-0.6,0.27-0.6c0.12,0,0.24,0.15,0.28,0.5c0.1,0.73,0.18,0.97,0.33,1.11c0.12,0.1,0.24,0.15,0.35,0.15
			c0.35,0,0.64-0.48,0.64-1.22c0-0.45-0.1-0.98-0.35-1.55c-0.27-0.62-0.49-1.02-0.81-1.74c-0.3-0.69-0.45-1.57-0.45-2.38
			c0-1.29,0.38-2.42,1.11-2.42c0.1,0,0.21,0.03,0.32,0.07c0.03,0.01,0.1,0.07,0.14,0.07c0.01,0,0.02,0,0.03-0.01
			c0.07-0.08,0.15-0.13,0.21-0.13c0.13,0,0.25,0.15,0.28,0.52c0.02,0.25,0.06,1,0.08,1.37v0.08c0,0.39-0.13,0.66-0.27,0.66
			c-0.1,0-0.2-0.13-0.26-0.41c-0.02-0.1-0.03-0.25-0.07-0.41C24.35,0.54,24.3,0.4,24.2,0.33z"/>
		<path class="st9" d="M27.76,0.15c-0.12,0.01-0.21,0.08-0.21,0.38c-0.01,0.94-0.01,2.21-0.01,3.52c0,1.32,0,2.63,0.01,3.67v0.1
			c0.01,0.28,0.1,0.38,0.23,0.38c0.17,0,0.26,0.34,0.26,0.67c0,0.32-0.09,0.66-0.29,0.66c-0.18,0-0.37-0.01-0.52-0.01h-0.09
			c-0.13,0-0.31,0.01-0.44,0.01c-0.2,0-0.29-0.32-0.29-0.64c0-0.35,0.1-0.69,0.27-0.69c0.13,0,0.23-0.07,0.27-0.43
			c0.01-1.18,0.01-2.73,0.01-4.26c0-1.13-0.01-2.2-0.01-2.94c0-0.36-0.03-0.41-0.2-0.41c-0.11,0-0.25,0.01-0.38,0.04
			c-0.2,0.03-0.36,0.43-0.43,0.88c-0.05,0.35-0.17,0.52-0.29,0.52c-0.13,0-0.25-0.22-0.25-0.67c0-0.04,0-0.1,0.01-0.15
			c0.02-0.35,0.07-0.74,0.1-1.12c0.05-0.56,0.18-0.7,0.31-0.7c0.07,0,0.14,0.03,0.2,0.07c0.05,0.03,0.08,0.07,0.12,0.07
			c0.01,0,0.03-0.01,0.04-0.01C26.35-0.98,26.66-1,26.96-1c0.19-0.01,0.41-0.01,0.56-0.01c0.21,0.01,0.48,0,0.66,0.06h0.06
			c0.05,0,0.09-0.01,0.13-0.07c0.04-0.04,0.11-0.1,0.19-0.1c0.14,0,0.31,0.15,0.35,0.69c0.03,0.38,0.07,0.64,0.09,0.99
			C29,0.63,29,0.68,29,0.74c0,0.48-0.12,0.71-0.26,0.71c-0.1,0-0.21-0.15-0.26-0.46c-0.1-0.53-0.25-0.78-0.39-0.8
			C27.96,0.17,27.83,0.15,27.76,0.15z"/>
		<path class="st9" d="M30.97,8.24c0.15,0,0.31,0,0.39-0.01c0.3-0.03,0.41-0.56,0.41-0.9V7.3c0-0.52,0.15-0.77,0.31-0.77
			c0.15,0,0.31,0.25,0.31,0.77v0.04c0,0.84-0.19,2.16-0.96,2.18h-0.13c-0.38,0-0.82-0.03-1.19-0.03c-0.21,0-0.39,0.01-0.52,0.04
			c-0.02,0-0.03,0.01-0.05,0.01c-0.2,0-0.3-0.35-0.3-0.69c0-0.35,0.1-0.7,0.31-0.7h0.03c0.15,0,0.17-0.28,0.17-0.56
			c0-0.1-0.01-0.2-0.01-0.29c0-1.25,0.01-4.97,0.01-6.23v-0.2c0-0.25-0.01-0.55-0.13-0.56c-0.22,0-0.33-0.35-0.33-0.69
			c0-0.32,0.1-0.64,0.31-0.64h0.04c0.14,0.03,0.29,0.04,0.44,0.04c0.15,0,0.3-0.01,0.45-0.03c0.11,0,0.22-0.01,0.33-0.01
			c0.17,0,0.32,0.01,0.45,0.07c0.07,0.03,0.12,0.04,0.16,0.04c0.04,0,0.07-0.01,0.11-0.06c0.05-0.06,0.12-0.1,0.2-0.1
			c0.13,0,0.27,0.13,0.3,0.56c0.03,0.38,0.06,0.66,0.06,1.01v0.11c0,0.53-0.13,0.81-0.27,0.81c-0.1,0-0.21-0.15-0.26-0.48
			c-0.07-0.41-0.26-0.67-0.54-0.7c-0.07,0-0.15-0.01-0.23-0.01c-0.12,0-0.24,0.01-0.31,0.03c-0.19,0.04-0.2,0.2-0.21,0.55
			c-0.01,0.35-0.01,1.34-0.02,2.16c0,0.21,0.02,0.25,0.1,0.28c0.03,0,0.11,0.01,0.2,0.01c0.13,0,0.29-0.01,0.38-0.03
			c0.07-0.01,0.16-0.08,0.16-0.22c0.03-0.41,0.15-0.59,0.27-0.59c0.12,0,0.25,0.21,0.25,0.59v0.04c-0.01,0.28-0.01,0.53-0.01,0.8
			c0,0.27,0.01,0.52,0.01,0.79v0.04c0,0.41-0.12,0.63-0.25,0.63c-0.12,0-0.24-0.18-0.27-0.56c-0.01-0.11-0.08-0.18-0.16-0.2
			c-0.1-0.03-0.22-0.04-0.31-0.04c-0.13,0-0.24,0.01-0.27,0.04c-0.09,0.03-0.1,0.14-0.1,0.28c0,1.05,0.01,2.35,0.01,2.88
			c0.01,0.22,0.03,0.48,0.26,0.49C30.65,8.24,30.81,8.24,30.97,8.24z"/>
		<path class="st9" d="M36.84,1.65c-0.01-0.14-0.03-0.22-0.05-0.22s-0.05,0.07-0.07,0.22c-0.19,1.74-0.5,4.64-0.68,6.11
			c-0.11,0.83-0.37,1.25-0.63,1.25s-0.53-0.42-0.63-1.25c-0.19-1.47-0.5-4.4-0.69-6.13c-0.02-0.18-0.04-0.25-0.07-0.25
			s-0.04,0.1-0.06,0.27c-0.07,1.54-0.19,4.37-0.27,6.19v0.06c0,0.14,0.02,0.31,0.13,0.31c0.16,0,0.25,0.34,0.25,0.67
			s-0.08,0.66-0.27,0.66c-0.16,0-0.3-0.01-0.44-0.01h-0.08c-0.12,0-0.28,0.01-0.4,0.01c-0.19,0-0.28-0.35-0.28-0.69
			c0-0.34,0.08-0.67,0.25-0.67c0.14,0,0.21-0.17,0.25-0.43c0.12-2.23,0.29-5.06,0.39-6.86V0.78c0-0.24-0.04-0.36-0.12-0.36h-0.05
			c-0.21,0-0.3-0.35-0.3-0.7c0-0.36,0.1-0.74,0.3-0.74h0.18c0.46,0,0.83,0.1,0.96,1.18c0.2,1.68,0.73,6.15,0.83,6.89
			c0.03,0.2,0.07,0.29,0.12,0.29s0.09-0.1,0.12-0.29c0.11-0.74,0.64-5.21,0.84-6.89c0.12-1.08,0.49-1.18,0.96-1.18h0.17
			c0.2,0,0.3,0.35,0.3,0.71s-0.1,0.73-0.31,0.73h-0.03c-0.08,0-0.12,0.14-0.12,0.36v0.08c0.08,1.81,0.26,4.64,0.38,6.86
			c0.04,0.27,0.11,0.43,0.25,0.43c0.16,0,0.25,0.34,0.25,0.67c0,0.35-0.09,0.69-0.28,0.69c-0.12,0-0.28-0.01-0.4-0.01h-0.08
			c-0.13,0-0.28,0.01-0.44,0.01c-0.18,0-0.27-0.32-0.27-0.66s0.09-0.67,0.25-0.67c0.1,0,0.13-0.18,0.13-0.32
			c0-0.04-0.01-0.07-0.01-0.13C37.03,5.92,36.9,3.16,36.84,1.65z"/>
	</g>
	<g class="st4">
		<path id="SVGID_x5F_8_x5F_" class="st8" d="M40.26,3.93c0,5.44-4.48,9.92-9.92,9.92s-9.92-4.48-9.92-9.92"/>
		<text>		<textPath  xlink:href="#SVGID_x5F_8_x5F_" startOffset="0%">
<tspan  class="st9" style="font-family:'ShinGoPr6-ExLight-90ms-RKSJ-H'; font-size:7px; letter-spacing:-225;">うどつて</tspan>		</textPath>
</text>
	</g>
	<path class="st2" d="M-19.27,83.3c0-10.89,8.96-19.84,19.84-19.84s19.84,8.96,19.84,19.84"/>
	<path class="st2" d="M10.5,83.3c0-10.89,8.96-19.84,19.84-19.84s19.84,8.96,19.84,19.84"/>
	<path class="st3" d="M43.14,101.58c0.37-0.26,0.74-0.53,1.09-0.82s0.7-0.58,1.04-0.88h-0.11c0.34,0.3,0.68,0.6,1.04,0.88
		s0.72,0.56,1.09,0.82"/>
	<g class="st4">
		<path class="st5" d="M40.26,83.3c0-10.89,8.96-19.84,19.84-19.84s19.84,8.96,19.84,19.84"/>
		<path class="st5" d="M70.02,83.3c0-10.89,8.96-19.84,19.84-19.84s19.84,8.96,19.84,19.84"/>
		<path class="st6" d="M50.18,83.3c0-5.44,4.48-9.92,9.92-9.92s9.92,4.48,9.92,9.92"/>
		<path class="st6" d="M79.94,83.3c0-5.44,4.48-9.92,9.92-9.92s9.92,4.48,9.92,9.92"/>
		<path class="st7" d="M77.06,65.01c-0.37,0.26-0.74,0.53-1.09,0.82c-0.36,0.28-0.7,0.58-1.04,0.88h0.11
			c-0.34-0.3-0.68-0.6-1.04-0.88c-0.36-0.28-0.72-0.56-1.09-0.82"/>
		<path class="st7" d="M106.83,65.01c-0.37,0.26-0.74,0.53-1.09,0.82c-0.36,0.28-0.7,0.58-1.04,0.88h0.11
			c-0.34-0.3-0.68-0.6-1.04-0.88c-0.36-0.28-0.72-0.56-1.09-0.82"/>
		<path class="st6" d="M72.87,69.68c-0.64,0.82-1.49,1.89-2.01,2.79s-1.01,1.88-1.4,3c-0.3-0.58-0.89-1.25-1.39-1.67
			s-1.37-0.92-1.92-1.26c0.41-0.88,1-2.04,1.51-2.87s1.15-1.72,1.75-2.49c0.61,0.35,1.2,0.74,1.76,1.16
			C71.73,68.76,72.36,69.2,72.87,69.68z"/>
		<path class="st6" d="M102.63,69.68c-0.64,0.82-1.49,1.89-2.01,2.79s-1.01,1.88-1.4,3c-0.3-0.58-0.89-1.25-1.39-1.67
			s-1.37-0.92-1.92-1.26c0.41-0.88,1-2.04,1.51-2.87s1.15-1.72,1.75-2.49c0.61,0.35,1.2,0.74,1.76,1.16
			C101.5,68.76,102.12,69.2,102.63,69.68z"/>
		<path class="st5" d="M109.71,83.3c0,10.89-8.96,19.84-19.84,19.84S70.02,94.18,70.02,83.3"/>
		<path class="st5" d="M79.94,83.3c0,10.89-8.96,19.84-19.84,19.84S40.26,94.18,40.26,83.3"/>
		<path id="SVGID_x5F_9_x5F_" class="st8" d="M40.26,83.3c0,10.89,8.96,19.84,19.84,19.84s19.84-8.96,19.84-19.84
			c0-5.44,4.48-9.92,9.92-9.92s9.92,4.48,9.92,9.92"/>
		<text>		<textPath  xlink:href="#SVGID_x5F_9_x5F_" startOffset="18.0447%">
<tspan  class="st9" style="font-family:'ShinGoPro-ExLight-90ms-RKSJ-H'; font-size:7px;">じょうほ</tspan><tspan  class="st9" style="font-family:'ShinGoPro-ExLight-90ms-RKSJ-H'; font-size:7px; letter-spacing:-100;">う</tspan><tspan  class="st9" style="font-family:'ShinGoPro-ExLight-90ms-RKSJ-H'; font-size:7px; letter-spacing:-300;">ぎじゅつ</tspan>		</textPath>
</text>
		<path class="st6" d="M70.02,83.3c0,5.44-4.48,9.92-9.92,9.92s-9.92-4.48-9.92-9.92"/>
		<path class="st6" d="M99.79,83.3c0,5.44-4.48,9.92-9.92,9.92s-9.92-4.48-9.92-9.92"/>
		<path class="st6" d="M47.33,96.92c0.64-0.82,1.49-1.89,2.01-2.79c0.52-0.9,1.01-1.88,1.4-3c0.3,0.58,0.89,1.25,1.39,1.67
			c0.5,0.42,1.37,0.92,1.92,1.26c-0.41,0.88-1,2.04-1.51,2.87c-0.51,0.83-1.15,1.72-1.75,2.49c-0.61-0.35-1.2-0.74-1.76-1.16
			C48.47,97.83,47.85,97.4,47.33,96.92z"/>
		<path class="st6" d="M77.1,96.92c0.64-0.82,1.49-1.89,2.01-2.79c0.52-0.9,1.01-1.88,1.4-3c0.3,0.58,0.89,1.25,1.39,1.67
			c0.5,0.42,1.37,0.92,1.92,1.26c-0.41,0.88-1,2.04-1.51,2.87s-1.15,1.72-1.75,2.49c-0.61-0.35-1.2-0.74-1.76-1.16
			C78.23,97.83,77.61,97.4,77.1,96.92z"/>
		<path class="st7" d="M72.91,101.58c0.37-0.26,0.74-0.53,1.09-0.82c0.36-0.28,0.7-0.58,1.04-0.88h-0.11
			c0.34,0.3,0.68,0.6,1.04,0.88c0.36,0.28,0.72,0.56,1.09,0.82"/>
		<path class="st7" d="M102.67,101.58c0.37-0.26,0.74-0.53,1.09-0.82c0.36-0.28,0.7-0.58,1.04-0.88h-0.11
			c0.34,0.3,0.68,0.6,1.04,0.88c0.36,0.28,0.72,0.56,1.09,0.82"/>
		<path id="SVGID_x5F_10_x5F_" class="st8" d="M50.18,83.3c0-5.44,4.48-9.92,9.92-9.92s9.92,4.48,9.92,9.92"/>
		<text>		<textPath  xlink:href="#SVGID_x5F_10_x5F_" startOffset="0%">
<tspan  class="st9" style="font-family:'ShinGoPr6-ExLight-90ms-RKSJ-H'; font-size:7px; letter-spacing:-280;">・りか</tspan>		</textPath>
</text>
		<path id="SVGID_x5F_11_x5F_" class="st8" d="M99.79,83.3c0,5.44-4.48,9.92-9.92,9.92s-9.92-4.48-9.92-9.92"/>
		<text>		<textPath  xlink:href="#SVGID_x5F_11_x5F_" startOffset="0%">
<tspan  class="st9" style="font-family:'ShinGoPr6-ExLight-90ms-RKSJ-H'; font-size:7px; letter-spacing:-225;">うどつて</tspan>		</textPath>
</text>
		<g>
			<path class="st9" d="M53.97,79.7c-0.09-0.06-0.18-0.1-0.26-0.1c-0.31,0-0.53,0.45-0.53,1.08c0,0.46,0.11,1.02,0.38,1.6
				c0.24,0.5,0.51,1.04,0.8,1.68c0.34,0.76,0.48,1.6,0.48,2.37c0,1.46-0.52,2.66-1.31,2.66c-0.16,0-0.33-0.06-0.5-0.15
				c-0.02-0.01-0.04-0.01-0.07-0.01c-0.08,0-0.12,0.08-0.21,0.08c-0.16,0-0.26-0.17-0.29-0.49c-0.03-0.42-0.12-1.47-0.14-1.93v-0.07
				c0-0.38,0.13-0.6,0.27-0.6c0.12,0,0.24,0.15,0.28,0.5c0.1,0.73,0.18,0.97,0.33,1.11c0.12,0.1,0.24,0.15,0.35,0.15
				c0.35,0,0.64-0.48,0.64-1.22c0-0.45-0.1-0.98-0.35-1.55c-0.27-0.62-0.49-1.02-0.81-1.74c-0.3-0.69-0.45-1.57-0.45-2.38
				c0-1.29,0.38-2.42,1.11-2.42c0.1,0,0.21,0.03,0.32,0.07c0.03,0.01,0.1,0.07,0.14,0.07c0.01,0,0.02,0,0.03-0.01
				c0.07-0.08,0.15-0.13,0.21-0.13c0.13,0,0.25,0.15,0.28,0.52c0.02,0.25,0.06,1,0.08,1.37v0.08c0,0.39-0.13,0.66-0.27,0.66
				c-0.1,0-0.2-0.13-0.26-0.41c-0.02-0.1-0.03-0.25-0.07-0.41C54.12,79.91,54.06,79.78,53.97,79.7z"/>
			<path class="st9" d="M57.52,79.52c-0.12,0.01-0.21,0.08-0.21,0.38c-0.01,0.94-0.01,2.21-0.01,3.52c0,1.32,0,2.63,0.01,3.67v0.1
				c0.01,0.28,0.1,0.38,0.23,0.38c0.17,0,0.26,0.34,0.26,0.67c0,0.32-0.09,0.66-0.29,0.66c-0.18,0-0.37-0.01-0.52-0.01h-0.09
				c-0.13,0-0.31,0.01-0.44,0.01c-0.2,0-0.29-0.32-0.29-0.64c0-0.35,0.1-0.69,0.27-0.69c0.13,0,0.23-0.07,0.27-0.43
				c0.01-1.18,0.01-2.73,0.01-4.26c0-1.13-0.01-2.2-0.01-2.94c0-0.36-0.03-0.41-0.2-0.41c-0.11,0-0.25,0.01-0.38,0.04
				c-0.2,0.03-0.36,0.43-0.43,0.88c-0.05,0.35-0.17,0.52-0.29,0.52c-0.13,0-0.25-0.22-0.25-0.67c0-0.04,0-0.1,0.01-0.15
				c0.02-0.35,0.07-0.74,0.1-1.12c0.05-0.56,0.18-0.7,0.31-0.7c0.07,0,0.14,0.03,0.2,0.07c0.05,0.03,0.08,0.07,0.12,0.07
				c0.01,0,0.03-0.01,0.04-0.01c0.15-0.06,0.45-0.07,0.75-0.07c0.19-0.01,0.41-0.01,0.56-0.01c0.21,0.01,0.48,0,0.66,0.06H58
				c0.05,0,0.09-0.01,0.13-0.07c0.04-0.04,0.11-0.1,0.19-0.1c0.14,0,0.31,0.15,0.35,0.69c0.03,0.38,0.07,0.64,0.09,0.99
				c0.01,0.07,0.01,0.13,0.01,0.18c0,0.48-0.12,0.71-0.26,0.71c-0.1,0-0.21-0.15-0.26-0.46c-0.1-0.53-0.25-0.78-0.39-0.8
				C57.72,79.54,57.6,79.52,57.52,79.52z"/>
			<path class="st9" d="M60.73,87.61c0.15,0,0.31,0,0.39-0.01c0.3-0.03,0.41-0.56,0.41-0.9v-0.03c0-0.52,0.15-0.77,0.31-0.77
				c0.15,0,0.31,0.25,0.31,0.77v0.04c0,0.84-0.19,2.16-0.96,2.18h-0.13c-0.38,0-0.82-0.03-1.19-0.03c-0.21,0-0.39,0.01-0.52,0.04
				c-0.02,0-0.03,0.01-0.05,0.01c-0.2,0-0.3-0.35-0.3-0.69c0-0.35,0.1-0.7,0.31-0.7h0.03c0.15,0,0.17-0.28,0.17-0.56
				c0-0.1-0.01-0.2-0.01-0.29c0-1.25,0.01-4.97,0.01-6.23v-0.2c0-0.25-0.01-0.55-0.13-0.56c-0.22,0-0.33-0.35-0.33-0.69
				c0-0.32,0.1-0.64,0.31-0.64h0.04c0.14,0.03,0.29,0.04,0.44,0.04c0.15,0,0.3-0.01,0.45-0.03c0.11,0,0.22-0.01,0.33-0.01
				c0.17,0,0.32,0.01,0.45,0.07c0.07,0.03,0.12,0.04,0.16,0.04c0.04,0,0.07-0.01,0.11-0.06c0.05-0.06,0.12-0.1,0.2-0.1
				c0.13,0,0.27,0.13,0.3,0.56c0.03,0.38,0.06,0.66,0.06,1.01V80c0,0.53-0.13,0.81-0.27,0.81c-0.1,0-0.21-0.15-0.26-0.48
				c-0.07-0.41-0.26-0.67-0.54-0.7c-0.07,0-0.15-0.01-0.23-0.01c-0.12,0-0.24,0.01-0.31,0.03c-0.19,0.04-0.2,0.2-0.21,0.55
				c-0.01,0.35-0.01,1.34-0.02,2.16c0,0.21,0.02,0.25,0.1,0.28c0.03,0,0.11,0.01,0.2,0.01c0.13,0,0.29-0.01,0.38-0.03
				c0.07-0.01,0.16-0.08,0.16-0.22c0.03-0.41,0.15-0.59,0.27-0.59c0.12,0,0.25,0.21,0.25,0.59v0.04c-0.01,0.28-0.01,0.53-0.01,0.8
				c0,0.27,0.01,0.52,0.01,0.79v0.04c0,0.41-0.12,0.63-0.25,0.63c-0.12,0-0.24-0.18-0.27-0.56c-0.01-0.11-0.08-0.18-0.16-0.2
				c-0.1-0.03-0.22-0.04-0.31-0.04c-0.13,0-0.24,0.01-0.27,0.04c-0.09,0.03-0.1,0.14-0.1,0.28c0,1.05,0.01,2.35,0.01,2.88
				c0.01,0.22,0.03,0.48,0.26,0.49C60.42,87.61,60.57,87.61,60.73,87.61z"/>
			<path class="st9" d="M66.61,81.02c-0.01-0.14-0.03-0.22-0.05-0.22s-0.05,0.07-0.07,0.22c-0.19,1.74-0.5,4.64-0.68,6.11
				c-0.11,0.83-0.37,1.25-0.63,1.25s-0.53-0.42-0.63-1.25c-0.19-1.47-0.5-4.4-0.69-6.13c-0.02-0.18-0.04-0.25-0.07-0.25
				s-0.04,0.1-0.06,0.27c-0.07,1.54-0.19,4.37-0.27,6.19v0.06c0,0.14,0.02,0.31,0.13,0.31c0.16,0,0.25,0.34,0.25,0.67
				s-0.08,0.66-0.27,0.66c-0.16,0-0.3-0.01-0.44-0.01h-0.08c-0.12,0-0.28,0.01-0.4,0.01c-0.19,0-0.28-0.35-0.28-0.69
				c0-0.34,0.08-0.67,0.25-0.67c0.14,0,0.21-0.17,0.25-0.43c0.12-2.23,0.29-5.06,0.39-6.86v-0.08c0-0.24-0.04-0.36-0.12-0.36h-0.05
				c-0.21,0-0.3-0.35-0.3-0.7c0-0.36,0.1-0.74,0.3-0.74h0.18c0.46,0,0.83,0.1,0.96,1.18c0.2,1.68,0.73,6.15,0.83,6.89
				c0.03,0.2,0.07,0.29,0.12,0.29s0.09-0.1,0.12-0.29c0.11-0.74,0.64-5.21,0.84-6.89c0.12-1.08,0.49-1.18,0.96-1.18h0.17
				c0.2,0,0.3,0.35,0.3,0.71s-0.1,0.73-0.31,0.73h-0.03c-0.08,0-0.12,0.14-0.12,0.36v0.08c0.08,1.81,0.26,4.64,0.38,6.86
				c0.04,0.27,0.11,0.43,0.25,0.43c0.16,0,0.25,0.34,0.25,0.67c0,0.35-0.09,0.69-0.28,0.69c-0.12,0-0.28-0.01-0.4-0.01h-0.08
				c-0.13,0-0.28,0.01-0.44,0.01c-0.18,0-0.27-0.32-0.27-0.66s0.09-0.67,0.25-0.67c0.1,0,0.13-0.18,0.13-0.32
				c0-0.04-0.01-0.07-0.01-0.13C66.79,85.29,66.67,82.53,66.61,81.02z"/>
		</g>
		<g>
			<path class="st9" d="M83.73,79.7c-0.09-0.06-0.18-0.1-0.26-0.1c-0.31,0-0.53,0.45-0.53,1.08c0,0.46,0.11,1.02,0.38,1.6
				c0.24,0.5,0.51,1.04,0.8,1.68c0.34,0.76,0.48,1.6,0.48,2.37c0,1.46-0.52,2.66-1.31,2.66c-0.16,0-0.33-0.06-0.5-0.15
				c-0.02-0.01-0.04-0.01-0.07-0.01c-0.08,0-0.12,0.08-0.21,0.08c-0.16,0-0.26-0.17-0.29-0.49c-0.03-0.42-0.12-1.47-0.14-1.93v-0.07
				c0-0.38,0.13-0.6,0.27-0.6c0.12,0,0.24,0.15,0.28,0.5c0.1,0.73,0.18,0.97,0.33,1.11c0.12,0.1,0.24,0.15,0.35,0.15
				c0.35,0,0.64-0.48,0.64-1.22c0-0.45-0.1-0.98-0.35-1.55c-0.27-0.62-0.49-1.02-0.81-1.74c-0.3-0.69-0.45-1.57-0.45-2.38
				c0-1.29,0.38-2.42,1.11-2.42c0.1,0,0.21,0.03,0.32,0.07c0.03,0.01,0.1,0.07,0.14,0.07c0.01,0,0.02,0,0.03-0.01
				c0.07-0.08,0.15-0.13,0.21-0.13c0.13,0,0.25,0.15,0.28,0.52c0.02,0.25,0.06,1,0.08,1.37v0.08c0,0.39-0.13,0.66-0.27,0.66
				c-0.1,0-0.2-0.13-0.26-0.41c-0.02-0.1-0.03-0.25-0.07-0.41C83.88,79.91,83.83,79.78,83.73,79.7z"/>
			<path class="st9" d="M87.29,79.52c-0.12,0.01-0.21,0.08-0.21,0.38c-0.01,0.94-0.01,2.21-0.01,3.52c0,1.32,0,2.63,0.01,3.67v0.1
				c0.01,0.28,0.1,0.38,0.23,0.38c0.17,0,0.26,0.34,0.26,0.67c0,0.32-0.09,0.66-0.29,0.66c-0.18,0-0.37-0.01-0.52-0.01h-0.09
				c-0.13,0-0.31,0.01-0.44,0.01c-0.2,0-0.29-0.32-0.29-0.64c0-0.35,0.1-0.69,0.27-0.69c0.13,0,0.23-0.07,0.27-0.43
				c0.01-1.18,0.01-2.73,0.01-4.26c0-1.13-0.01-2.2-0.01-2.94c0-0.36-0.03-0.41-0.2-0.41c-0.11,0-0.25,0.01-0.38,0.04
				c-0.2,0.03-0.36,0.43-0.43,0.88c-0.05,0.35-0.17,0.52-0.29,0.52c-0.13,0-0.25-0.22-0.25-0.67c0-0.04,0-0.1,0.01-0.15
				c0.02-0.35,0.07-0.74,0.1-1.12c0.05-0.56,0.18-0.7,0.31-0.7c0.07,0,0.14,0.03,0.2,0.07c0.05,0.03,0.08,0.07,0.12,0.07
				c0.01,0,0.03-0.01,0.04-0.01c0.15-0.06,0.45-0.07,0.75-0.07c0.19-0.01,0.41-0.01,0.56-0.01c0.21,0.01,0.48,0,0.66,0.06h0.06
				c0.05,0,0.09-0.01,0.13-0.07c0.04-0.04,0.11-0.1,0.19-0.1c0.14,0,0.31,0.15,0.35,0.69c0.03,0.38,0.07,0.64,0.09,0.99
				c0.01,0.07,0.01,0.13,0.01,0.18c0,0.48-0.12,0.71-0.26,0.71c-0.1,0-0.21-0.15-0.26-0.46c-0.1-0.53-0.25-0.78-0.39-0.8
				C87.48,79.54,87.36,79.52,87.29,79.52z"/>
			<path class="st9" d="M90.5,87.61c0.15,0,0.31,0,0.39-0.01c0.3-0.03,0.41-0.56,0.41-0.9v-0.03c0-0.52,0.15-0.77,0.31-0.77
				c0.15,0,0.31,0.25,0.31,0.77v0.04c0,0.84-0.19,2.16-0.96,2.18h-0.13c-0.38,0-0.82-0.03-1.19-0.03c-0.21,0-0.39,0.01-0.52,0.04
				c-0.02,0-0.03,0.01-0.05,0.01c-0.2,0-0.3-0.35-0.3-0.69c0-0.35,0.1-0.7,0.31-0.7h0.03c0.15,0,0.17-0.28,0.17-0.56
				c0-0.1-0.01-0.2-0.01-0.29c0-1.25,0.01-4.97,0.01-6.23v-0.2c0-0.25-0.01-0.55-0.13-0.56c-0.22,0-0.33-0.35-0.33-0.69
				c0-0.32,0.1-0.64,0.31-0.64h0.04c0.14,0.03,0.29,0.04,0.44,0.04c0.15,0,0.3-0.01,0.45-0.03c0.11,0,0.22-0.01,0.33-0.01
				c0.17,0,0.32,0.01,0.45,0.07c0.07,0.03,0.12,0.04,0.16,0.04c0.04,0,0.07-0.01,0.11-0.06c0.05-0.06,0.12-0.1,0.2-0.1
				c0.13,0,0.27,0.13,0.3,0.56c0.03,0.38,0.06,0.66,0.06,1.01V80c0,0.53-0.13,0.81-0.27,0.81c-0.1,0-0.21-0.15-0.26-0.48
				c-0.07-0.41-0.26-0.67-0.54-0.7c-0.07,0-0.15-0.01-0.23-0.01c-0.12,0-0.24,0.01-0.31,0.03c-0.19,0.04-0.2,0.2-0.21,0.55
				c-0.01,0.35-0.01,1.34-0.02,2.16c0,0.21,0.02,0.25,0.1,0.28c0.03,0,0.11,0.01,0.2,0.01c0.13,0,0.29-0.01,0.38-0.03
				c0.07-0.01,0.16-0.08,0.16-0.22c0.03-0.41,0.15-0.59,0.27-0.59c0.12,0,0.25,0.21,0.25,0.59v0.04c-0.01,0.28-0.01,0.53-0.01,0.8
				c0,0.27,0.01,0.52,0.01,0.79v0.04c0,0.41-0.12,0.63-0.25,0.63c-0.12,0-0.24-0.18-0.27-0.56c-0.01-0.11-0.08-0.18-0.16-0.2
				c-0.1-0.03-0.22-0.04-0.31-0.04c-0.13,0-0.24,0.01-0.27,0.04c-0.09,0.03-0.1,0.14-0.1,0.28c0,1.05,0.01,2.35,0.01,2.88
				c0.01,0.22,0.03,0.48,0.26,0.49C90.18,87.61,90.34,87.61,90.5,87.61z"/>
			<path class="st9" d="M96.37,81.02c-0.01-0.14-0.03-0.22-0.05-0.22s-0.05,0.07-0.07,0.22c-0.19,1.74-0.5,4.64-0.68,6.11
				c-0.11,0.83-0.37,1.25-0.63,1.25s-0.53-0.42-0.63-1.25c-0.19-1.47-0.5-4.4-0.69-6.13c-0.02-0.18-0.04-0.25-0.07-0.25
				s-0.04,0.1-0.06,0.27c-0.07,1.54-0.19,4.37-0.27,6.19v0.06c0,0.14,0.02,0.31,0.13,0.31c0.16,0,0.25,0.34,0.25,0.67
				s-0.08,0.66-0.27,0.66c-0.16,0-0.3-0.01-0.44-0.01h-0.08c-0.12,0-0.28,0.01-0.4,0.01c-0.19,0-0.28-0.35-0.28-0.69
				c0-0.34,0.08-0.67,0.25-0.67c0.14,0,0.21-0.17,0.25-0.43c0.12-2.23,0.29-5.06,0.39-6.86v-0.08c0-0.24-0.04-0.36-0.12-0.36h-0.05
				c-0.21,0-0.3-0.35-0.3-0.7c0-0.36,0.1-0.74,0.3-0.74h0.18c0.46,0,0.83,0.1,0.96,1.18c0.2,1.68,0.73,6.15,0.83,6.89
				c0.03,0.2,0.07,0.29,0.12,0.29s0.09-0.1,0.12-0.29c0.11-0.74,0.64-5.21,0.84-6.89c0.12-1.08,0.49-1.18,0.96-1.18h0.17
				c0.2,0,0.3,0.35,0.3,0.71s-0.1,0.73-0.31,0.73h-0.03c-0.08,0-0.12,0.14-0.12,0.36v0.08c0.08,1.81,0.26,4.64,0.38,6.86
				c0.04,0.27,0.11,0.43,0.25,0.43c0.16,0,0.25,0.34,0.25,0.67c0,0.35-0.09,0.69-0.28,0.69c-0.12,0-0.28-0.01-0.4-0.01h-0.08
				c-0.13,0-0.28,0.01-0.44,0.01c-0.18,0-0.27-0.32-0.27-0.66s0.09-0.67,0.25-0.67c0.1,0,0.13-0.18,0.13-0.32
				c0-0.04-0.01-0.07-0.01-0.13C96.55,85.29,96.43,82.53,96.37,81.02z"/>
		</g>
	</g>
	<path class="st10" d="M-9.35,83.3c0-5.44,4.48-9.92,9.92-9.92s9.92,4.48,9.92,9.92"/>
	<path class="st10" d="M20.42,83.3c0-5.44,4.48-9.92,9.92-9.92s9.92,4.48,9.92,9.92"/>
	<path class="st3" d="M17.53,65.01c-0.37,0.26-0.74,0.53-1.09,0.82c-0.36,0.28-0.7,0.58-1.04,0.88h0.11
		c-0.34-0.3-0.68-0.6-1.04-0.88c-0.36-0.28-0.72-0.56-1.09-0.82"/>
	<path class="st3" d="M47.3,65.01c-0.37,0.26-0.74,0.53-1.09,0.82c-0.36,0.28-0.7,0.58-1.04,0.88h0.11c-0.34-0.3-0.68-0.6-1.04-0.88
		c-0.36-0.28-0.72-0.56-1.09-0.82"/>
	<path class="st10" d="M13.34,69.68c-0.64,0.82-1.49,1.89-2.01,2.79s-1.01,1.88-1.4,3c-0.3-0.58-0.89-1.25-1.39-1.67
		s-1.37-0.92-1.92-1.26c0.41-0.88,1-2.04,1.51-2.87s1.15-1.72,1.75-2.49c0.61,0.35,1.2,0.74,1.76,1.16
		C12.2,68.76,12.83,69.2,13.34,69.68z"/>
	<path class="st10" d="M43.11,69.68c-0.64,0.82-1.49,1.89-2.01,2.79c-0.52,0.9-1.01,1.88-1.4,3c-0.3-0.58-0.89-1.25-1.39-1.67
		c-0.5-0.42-1.37-0.92-1.92-1.26c0.41-0.88,1-2.04,1.51-2.87c0.51-0.83,1.15-1.72,1.75-2.49c0.61,0.35,1.2,0.74,1.76,1.16
		C41.97,68.76,42.59,69.2,43.11,69.68z"/>
	<path class="st2" d="M50.18,83.3c0,10.89-8.96,19.84-19.84,19.84S10.5,94.18,10.5,83.3"/>
	<path class="st2" d="M20.42,83.3c0,10.89-8.96,19.84-19.84,19.84s-19.84-8.96-19.84-19.84"/>
	<g class="st4">
		<path id="SVGID_x5F_12_x5F_" class="st8" d="M-19.27,83.3c0,10.89,8.96,19.84,19.84,19.84s19.84-8.96,19.84-19.84
			c0-5.44,4.48-9.92,9.92-9.92s9.92,4.48,9.92,9.92"/>
		<text>		<textPath  xlink:href="#SVGID_x5F_12_x5F_" startOffset="18.0447%">
<tspan  class="st9" style="font-family:'ShinGoPro-ExLight-90ms-RKSJ-H'; font-size:7px;">じょうほ</tspan><tspan  class="st9" style="font-family:'ShinGoPro-ExLight-90ms-RKSJ-H'; font-size:7px; letter-spacing:-100;">う</tspan><tspan  class="st9" style="font-family:'ShinGoPro-ExLight-90ms-RKSJ-H'; font-size:7px; letter-spacing:-300;">ぎじゅつ</tspan>		</textPath>
</text>
	</g>
	<path class="st10" d="M10.5,83.3c0,5.44-4.48,9.92-9.92,9.92s-9.92-4.48-9.92-9.92"/>
	<path class="st10" d="M40.26,83.3c0,5.44-4.48,9.92-9.92,9.92s-9.92-4.48-9.92-9.92"/>
	<path class="st10" d="M-12.19,96.92c0.64-0.82,1.49-1.89,2.01-2.79s1.01-1.88,1.4-3c0.3,0.58,0.89,1.25,1.39,1.67
		c0.5,0.42,1.37,0.92,1.92,1.26c-0.41,0.88-1,2.04-1.51,2.87s-1.15,1.72-1.75,2.49c-0.61-0.35-1.2-0.74-1.76-1.16
		C-11.06,97.83-11.68,97.4-12.19,96.92z"/>
	<path class="st10" d="M17.57,96.92c0.64-0.82,1.49-1.89,2.01-2.79c0.52-0.9,1.01-1.88,1.4-3c0.3,0.58,0.89,1.25,1.39,1.67
		c0.5,0.42,1.37,0.92,1.92,1.26c-0.41,0.88-1,2.04-1.51,2.87c-0.51,0.83-1.15,1.72-1.75,2.49c-0.61-0.35-1.2-0.74-1.76-1.16
		C18.71,97.83,18.08,97.4,17.57,96.92z"/>
	<path class="st3" d="M13.38,101.58c0.37-0.26,0.74-0.53,1.09-0.82c0.36-0.28,0.7-0.58,1.04-0.88H15.4c0.34,0.3,0.68,0.6,1.04,0.88
		s0.72,0.56,1.09,0.82"/>
	<g class="st4">
		<path id="SVGID_x5F_13_x5F_" class="st8" d="M-9.35,83.3c0-5.44,4.48-9.92,9.92-9.92s9.92,4.48,9.92,9.92"/>
		<text>		<textPath  xlink:href="#SVGID_x5F_13_x5F_" startOffset="0%">
<tspan  class="st9" style="font-family:'ShinGoPr6-ExLight-90ms-RKSJ-H'; font-size:7px; letter-spacing:-280;">・りか</tspan>		</textPath>
</text>
	</g>
	<g class="st4">
		<path class="st9" d="M-5.56,79.7c-0.09-0.06-0.18-0.1-0.26-0.1c-0.31,0-0.53,0.45-0.53,1.08c0,0.46,0.11,1.02,0.38,1.6
			c0.24,0.5,0.51,1.04,0.8,1.68c0.34,0.76,0.48,1.6,0.48,2.37c0,1.46-0.52,2.66-1.31,2.66c-0.16,0-0.33-0.06-0.5-0.15
			c-0.02-0.01-0.04-0.01-0.07-0.01c-0.08,0-0.12,0.08-0.21,0.08c-0.16,0-0.26-0.17-0.29-0.49C-7.1,88-7.18,86.95-7.21,86.48v-0.07
			c0-0.38,0.13-0.6,0.27-0.6c0.12,0,0.24,0.15,0.28,0.5c0.1,0.73,0.18,0.97,0.33,1.11c0.12,0.1,0.24,0.15,0.35,0.15
			c0.35,0,0.64-0.48,0.64-1.22c0-0.45-0.1-0.98-0.35-1.55c-0.27-0.62-0.49-1.02-0.81-1.74c-0.3-0.69-0.45-1.57-0.45-2.38
			c0-1.29,0.38-2.42,1.11-2.42c0.1,0,0.21,0.03,0.32,0.07c0.03,0.01,0.1,0.07,0.14,0.07c0.01,0,0.02,0,0.03-0.01
			c0.07-0.08,0.15-0.13,0.21-0.13c0.13,0,0.25,0.15,0.28,0.52c0.02,0.25,0.06,1,0.08,1.37v0.08c0,0.39-0.13,0.66-0.27,0.66
			c-0.1,0-0.2-0.13-0.26-0.41c-0.02-0.1-0.03-0.25-0.07-0.41C-5.41,79.91-5.47,79.78-5.56,79.7z"/>
		<path class="st9" d="M-2,79.52c-0.12,0.01-0.21,0.08-0.21,0.38c-0.01,0.94-0.01,2.21-0.01,3.52c0,1.32,0,2.63,0.01,3.67v0.1
			c0.01,0.28,0.1,0.38,0.23,0.38c0.17,0,0.26,0.34,0.26,0.67c0,0.32-0.09,0.66-0.29,0.66c-0.18,0-0.37-0.01-0.52-0.01h-0.09
			c-0.13,0-0.31,0.01-0.44,0.01c-0.2,0-0.29-0.32-0.29-0.64c0-0.35,0.1-0.69,0.27-0.69c0.13,0,0.23-0.07,0.27-0.43
			c0.01-1.18,0.01-2.73,0.01-4.26c0-1.13-0.01-2.2-0.01-2.94c0-0.36-0.03-0.41-0.2-0.41c-0.11,0-0.25,0.01-0.38,0.04
			c-0.2,0.03-0.36,0.43-0.43,0.88c-0.05,0.35-0.17,0.52-0.29,0.52c-0.13,0-0.25-0.22-0.25-0.67c0-0.04,0-0.1,0.01-0.15
			c0.02-0.35,0.07-0.74,0.1-1.12c0.05-0.56,0.18-0.7,0.31-0.7c0.07,0,0.14,0.03,0.2,0.07c0.05,0.03,0.08,0.07,0.12,0.07
			c0.01,0,0.03-0.01,0.04-0.01c0.15-0.06,0.45-0.07,0.75-0.07c0.19-0.01,0.41-0.01,0.56-0.01c0.21,0.01,0.48,0,0.66,0.06h0.06
			c0.05,0,0.09-0.01,0.13-0.07c0.04-0.04,0.11-0.1,0.19-0.1c0.14,0,0.31,0.15,0.35,0.69c0.03,0.38,0.07,0.64,0.09,0.99
			c0.01,0.07,0.01,0.13,0.01,0.18c0,0.48-0.12,0.71-0.26,0.71c-0.1,0-0.21-0.15-0.26-0.46c-0.1-0.53-0.25-0.78-0.39-0.8
			C-1.81,79.54-1.93,79.52-2,79.52z"/>
		<path class="st9" d="M1.2,87.61c0.15,0,0.31,0,0.39-0.01C1.89,87.56,2,87.03,2,86.69v-0.03c0-0.52,0.15-0.77,0.31-0.77
			c0.15,0,0.31,0.25,0.31,0.77v0.04c0,0.84-0.19,2.16-0.96,2.18H1.53c-0.38,0-0.82-0.03-1.19-0.03c-0.21,0-0.39,0.01-0.52,0.04
			c-0.02,0-0.03,0.01-0.05,0.01c-0.2,0-0.3-0.35-0.3-0.69c0-0.35,0.1-0.7,0.31-0.7h0.03c0.15,0,0.17-0.28,0.17-0.56
			c0-0.1-0.01-0.2-0.01-0.29c0-1.25,0.01-4.97,0.01-6.23v-0.2C0,80-0.01,79.7-0.13,79.69c-0.22,0-0.33-0.35-0.33-0.69
			c0-0.32,0.1-0.64,0.31-0.64h0.04c0.14,0.03,0.29,0.04,0.44,0.04c0.15,0,0.3-0.01,0.45-0.03c0.11,0,0.22-0.01,0.33-0.01
			c0.17,0,0.32,0.01,0.45,0.07c0.07,0.03,0.12,0.04,0.16,0.04c0.04,0,0.07-0.01,0.11-0.06c0.05-0.06,0.12-0.1,0.2-0.1
			c0.13,0,0.27,0.13,0.3,0.56c0.03,0.38,0.06,0.66,0.06,1.01V80c0,0.53-0.13,0.81-0.27,0.81c-0.1,0-0.21-0.15-0.26-0.48
			c-0.07-0.41-0.26-0.67-0.54-0.7c-0.07,0-0.15-0.01-0.23-0.01c-0.12,0-0.24,0.01-0.31,0.03c-0.19,0.04-0.2,0.2-0.21,0.55
			c-0.01,0.35-0.01,1.34-0.02,2.16c0,0.21,0.02,0.25,0.1,0.28c0.03,0,0.11,0.01,0.2,0.01c0.13,0,0.29-0.01,0.38-0.03
			c0.07-0.01,0.16-0.08,0.16-0.22c0.03-0.41,0.15-0.59,0.27-0.59c0.12,0,0.25,0.21,0.25,0.59v0.04c-0.01,0.28-0.01,0.53-0.01,0.8
			c0,0.27,0.01,0.52,0.01,0.79v0.04c0,0.41-0.12,0.63-0.25,0.63c-0.12,0-0.24-0.18-0.27-0.56c-0.01-0.11-0.08-0.18-0.16-0.2
			c-0.1-0.03-0.22-0.04-0.31-0.04c-0.13,0-0.24,0.01-0.27,0.04c-0.09,0.03-0.1,0.14-0.1,0.28c0,1.05,0.01,2.35,0.01,2.88
			c0.01,0.22,0.03,0.48,0.26,0.49C0.89,87.61,1.05,87.61,1.2,87.61z"/>
		<path class="st9" d="M7.08,81.02c-0.01-0.14-0.03-0.22-0.05-0.22s-0.05,0.07-0.07,0.22c-0.19,1.74-0.5,4.64-0.68,6.11
			c-0.11,0.83-0.37,1.25-0.63,1.25s-0.53-0.42-0.63-1.25c-0.19-1.47-0.5-4.4-0.69-6.13c-0.02-0.18-0.04-0.25-0.07-0.25
			s-0.04,0.1-0.06,0.27c-0.07,1.54-0.19,4.37-0.27,6.19v0.06c0,0.14,0.02,0.31,0.13,0.31c0.16,0,0.25,0.34,0.25,0.67
			s-0.08,0.66-0.27,0.66c-0.16,0-0.3-0.01-0.44-0.01H3.53c-0.12,0-0.28,0.01-0.4,0.01c-0.19,0-0.28-0.35-0.28-0.69
			c0-0.34,0.08-0.67,0.25-0.67c0.14,0,0.21-0.17,0.25-0.43c0.12-2.23,0.29-5.06,0.39-6.86v-0.08c0-0.24-0.04-0.36-0.12-0.36H3.56
			c-0.21,0-0.3-0.35-0.3-0.7c0-0.36,0.1-0.74,0.3-0.74h0.18c0.46,0,0.83,0.1,0.96,1.18c0.2,1.68,0.73,6.15,0.83,6.89
			c0.03,0.2,0.07,0.29,0.12,0.29s0.09-0.1,0.12-0.29c0.11-0.74,0.64-5.21,0.84-6.89c0.12-1.08,0.49-1.18,0.96-1.18h0.17
			c0.2,0,0.3,0.35,0.3,0.71s-0.1,0.73-0.31,0.73H7.68c-0.08,0-0.12,0.14-0.12,0.36v0.08c0.08,1.81,0.26,4.64,0.38,6.86
			c0.04,0.27,0.11,0.43,0.25,0.43c0.16,0,0.25,0.34,0.25,0.67c0,0.35-0.09,0.69-0.28,0.69c-0.12,0-0.28-0.01-0.4-0.01H7.68
			c-0.13,0-0.28,0.01-0.44,0.01c-0.18,0-0.27-0.32-0.27-0.66s0.09-0.67,0.25-0.67c0.1,0,0.13-0.18,0.13-0.32
			c0-0.04-0.01-0.07-0.01-0.13C7.26,85.29,7.14,82.53,7.08,81.02z"/>
	</g>
	<g class="st4">
		<path class="st9" d="M24.2,79.7c-0.09-0.06-0.18-0.1-0.26-0.1c-0.31,0-0.53,0.45-0.53,1.08c0,0.46,0.11,1.02,0.38,1.6
			c0.24,0.5,0.51,1.04,0.8,1.68c0.34,0.76,0.48,1.6,0.48,2.37c0,1.46-0.52,2.66-1.31,2.66c-0.16,0-0.33-0.06-0.5-0.15
			c-0.02-0.01-0.04-0.01-0.07-0.01c-0.08,0-0.12,0.08-0.21,0.08c-0.16,0-0.26-0.17-0.29-0.49c-0.03-0.42-0.12-1.47-0.14-1.93v-0.07
			c0-0.38,0.13-0.6,0.27-0.6c0.12,0,0.24,0.15,0.28,0.5c0.1,0.73,0.18,0.97,0.33,1.11c0.12,0.1,0.24,0.15,0.35,0.15
			c0.35,0,0.64-0.48,0.64-1.22c0-0.45-0.1-0.98-0.35-1.55c-0.27-0.62-0.49-1.02-0.81-1.74c-0.3-0.69-0.45-1.57-0.45-2.38
			c0-1.29,0.38-2.42,1.11-2.42c0.1,0,0.21,0.03,0.32,0.07c0.03,0.01,0.1,0.07,0.14,0.07c0.01,0,0.02,0,0.03-0.01
			c0.07-0.08,0.15-0.13,0.21-0.13c0.13,0,0.25,0.15,0.28,0.52c0.02,0.25,0.06,1,0.08,1.37v0.08c0,0.39-0.13,0.66-0.27,0.66
			c-0.1,0-0.2-0.13-0.26-0.41c-0.02-0.1-0.03-0.25-0.07-0.41C24.35,79.91,24.3,79.78,24.2,79.7z"/>
		<path class="st9" d="M27.76,79.52c-0.12,0.01-0.21,0.08-0.21,0.38c-0.01,0.94-0.01,2.21-0.01,3.52c0,1.32,0,2.63,0.01,3.67v0.1
			c0.01,0.28,0.1,0.38,0.23,0.38c0.17,0,0.26,0.34,0.26,0.67c0,0.32-0.09,0.66-0.29,0.66c-0.18,0-0.37-0.01-0.52-0.01h-0.09
			c-0.13,0-0.31,0.01-0.44,0.01c-0.2,0-0.29-0.32-0.29-0.64c0-0.35,0.1-0.69,0.27-0.69c0.13,0,0.23-0.07,0.27-0.43
			c0.01-1.18,0.01-2.73,0.01-4.26c0-1.13-0.01-2.2-0.01-2.94c0-0.36-0.03-0.41-0.2-0.41c-0.11,0-0.25,0.01-0.38,0.04
			c-0.2,0.03-0.36,0.43-0.43,0.88c-0.05,0.35-0.17,0.52-0.29,0.52c-0.13,0-0.25-0.22-0.25-0.67c0-0.04,0-0.1,0.01-0.15
			c0.02-0.35,0.07-0.74,0.1-1.12c0.05-0.56,0.18-0.7,0.31-0.7c0.07,0,0.14,0.03,0.2,0.07c0.05,0.03,0.08,0.07,0.12,0.07
			c0.01,0,0.03-0.01,0.04-0.01c0.15-0.06,0.45-0.07,0.75-0.07c0.19-0.01,0.41-0.01,0.56-0.01c0.21,0.01,0.48,0,0.66,0.06h0.06
			c0.05,0,0.09-0.01,0.13-0.07c0.04-0.04,0.11-0.1,0.19-0.1c0.14,0,0.31,0.15,0.35,0.69c0.03,0.38,0.07,0.64,0.09,0.99
			C29,80,29,80.05,29,80.11c0,0.48-0.12,0.71-0.26,0.71c-0.1,0-0.21-0.15-0.26-0.46c-0.1-0.53-0.25-0.78-0.39-0.8
			C27.96,79.54,27.83,79.52,27.76,79.52z"/>
		<path class="st9" d="M30.97,87.61c0.15,0,0.31,0,0.39-0.01c0.3-0.03,0.41-0.56,0.41-0.9v-0.03c0-0.52,0.15-0.77,0.31-0.77
			c0.15,0,0.31,0.25,0.31,0.77v0.04c0,0.84-0.19,2.16-0.96,2.18h-0.13c-0.38,0-0.82-0.03-1.19-0.03c-0.21,0-0.39,0.01-0.52,0.04
			c-0.02,0-0.03,0.01-0.05,0.01c-0.2,0-0.3-0.35-0.3-0.69c0-0.35,0.1-0.7,0.31-0.7h0.03c0.15,0,0.17-0.28,0.17-0.56
			c0-0.1-0.01-0.2-0.01-0.29c0-1.25,0.01-4.97,0.01-6.23v-0.2c0-0.25-0.01-0.55-0.13-0.56c-0.22,0-0.33-0.35-0.33-0.69
			c0-0.32,0.1-0.64,0.31-0.64h0.04c0.14,0.03,0.29,0.04,0.44,0.04c0.15,0,0.3-0.01,0.45-0.03c0.11,0,0.22-0.01,0.33-0.01
			c0.17,0,0.32,0.01,0.45,0.07c0.07,0.03,0.12,0.04,0.16,0.04c0.04,0,0.07-0.01,0.11-0.06c0.05-0.06,0.12-0.1,0.2-0.1
			c0.13,0,0.27,0.13,0.3,0.56c0.03,0.38,0.06,0.66,0.06,1.01V80c0,0.53-0.13,0.81-0.27,0.81c-0.1,0-0.21-0.15-0.26-0.48
			c-0.07-0.41-0.26-0.67-0.54-0.7c-0.07,0-0.15-0.01-0.23-0.01c-0.12,0-0.24,0.01-0.31,0.03c-0.19,0.04-0.2,0.2-0.21,0.55
			c-0.01,0.35-0.01,1.34-0.02,2.16c0,0.21,0.02,0.25,0.1,0.28c0.03,0,0.11,0.01,0.2,0.01c0.13,0,0.29-0.01,0.38-0.03
			c0.07-0.01,0.16-0.08,0.16-0.22c0.03-0.41,0.15-0.59,0.27-0.59c0.12,0,0.25,0.21,0.25,0.59v0.04c-0.01,0.28-0.01,0.53-0.01,0.8
			c0,0.27,0.01,0.52,0.01,0.79v0.04c0,0.41-0.12,0.63-0.25,0.63c-0.12,0-0.24-0.18-0.27-0.56c-0.01-0.11-0.08-0.18-0.16-0.2
			c-0.1-0.03-0.22-0.04-0.31-0.04c-0.13,0-0.24,0.01-0.27,0.04c-0.09,0.03-0.1,0.14-0.1,0.28c0,1.05,0.01,2.35,0.01,2.88
			c0.01,0.22,0.03,0.48,0.26,0.49C30.65,87.61,30.81,87.61,30.97,87.61z"/>
		<path class="st9" d="M36.84,81.02c-0.01-0.14-0.03-0.22-0.05-0.22s-0.05,0.07-0.07,0.22c-0.19,1.74-0.5,4.64-0.68,6.11
			c-0.11,0.83-0.37,1.25-0.63,1.25s-0.53-0.42-0.63-1.25c-0.19-1.47-0.5-4.4-0.69-6.13c-0.02-0.18-0.04-0.25-0.07-0.25
			s-0.04,0.1-0.06,0.27c-0.07,1.54-0.19,4.37-0.27,6.19v0.06c0,0.14,0.02,0.31,0.13,0.31c0.16,0,0.25,0.34,0.25,0.67
			s-0.08,0.66-0.27,0.66c-0.16,0-0.3-0.01-0.44-0.01h-0.08c-0.12,0-0.28,0.01-0.4,0.01c-0.19,0-0.28-0.35-0.28-0.69
			c0-0.34,0.08-0.67,0.25-0.67c0.14,0,0.21-0.17,0.25-0.43c0.12-2.23,0.29-5.06,0.39-6.86v-0.08c0-0.24-0.04-0.36-0.12-0.36h-0.05
			c-0.21,0-0.3-0.35-0.3-0.7c0-0.36,0.1-0.74,0.3-0.74h0.18c0.46,0,0.83,0.1,0.96,1.18c0.2,1.68,0.73,6.15,0.83,6.89
			c0.03,0.2,0.07,0.29,0.12,0.29s0.09-0.1,0.12-0.29c0.11-0.74,0.64-5.21,0.84-6.89c0.12-1.08,0.49-1.18,0.96-1.18h0.17
			c0.2,0,0.3,0.35,0.3,0.71s-0.1,0.73-0.31,0.73h-0.03c-0.08,0-0.12,0.14-0.12,0.36v0.08c0.08,1.81,0.26,4.64,0.38,6.86
			c0.04,0.27,0.11,0.43,0.25,0.43c0.16,0,0.25,0.34,0.25,0.67c0,0.35-0.09,0.69-0.28,0.69c-0.12,0-0.28-0.01-0.4-0.01h-0.08
			c-0.13,0-0.28,0.01-0.44,0.01c-0.18,0-0.27-0.32-0.27-0.66s0.09-0.67,0.25-0.67c0.1,0,0.13-0.18,0.13-0.32
			c0-0.04-0.01-0.07-0.01-0.13C37.03,85.29,36.9,82.53,36.84,81.02z"/>
	</g>
	<g class="st4">
		<path id="SVGID_x5F_14_x5F_" class="st8" d="M40.26,83.3c0,5.44-4.48,9.92-9.92,9.92s-9.92-4.48-9.92-9.92"/>
		<text>		<textPath  xlink:href="#SVGID_x5F_14_x5F_" startOffset="0%">
<tspan  class="st9" style="font-family:'ShinGoPr6-ExLight-90ms-RKSJ-H'; font-size:7px; letter-spacing:-225;">うどつて</tspan>		</textPath>
</text>
	</g>
	<path class="st2" d="M-33.44,43.61c0-10.89,8.96-19.84,19.84-19.84S6.24,32.73,6.24,43.61"/>
	<path class="st2" d="M-3.68,43.61c0-10.89,8.96-19.84,19.84-19.84s19.84,8.96,19.84,19.84"/>
	<path class="st3" d="M28.97,61.9c0.37-0.26,0.74-0.53,1.09-0.82c0.36-0.28,0.7-0.58,1.04-0.88h-0.11c0.34,0.3,0.68,0.6,1.04,0.88
		c0.36,0.28,0.72,0.56,1.09,0.82"/>
	<g class="st4">
		<path class="st5" d="M26.09,43.61c0-10.89,8.96-19.84,19.84-19.84s19.84,8.96,19.84,19.84"/>
		<path class="st5" d="M55.85,43.61c0-10.89,8.96-19.84,19.84-19.84s19.84,8.96,19.84,19.84"/>
		<path class="st6" d="M36.01,43.61c0-5.44,4.48-9.92,9.92-9.92s9.92,4.48,9.92,9.92"/>
		<path class="st6" d="M65.77,43.61c0-5.44,4.48-9.92,9.92-9.92s9.92,4.48,9.92,9.92"/>
		<path class="st7" d="M62.89,25.33c-0.37,0.26-0.74,0.53-1.09,0.82s-0.7,0.58-1.04,0.88h0.11c-0.34-0.3-0.68-0.6-1.04-0.88
			s-0.72-0.56-1.09-0.82"/>
		<path class="st7" d="M92.65,25.33c-0.37,0.26-0.74,0.53-1.09,0.82c-0.36,0.28-0.7,0.58-1.04,0.88h0.11
			c-0.34-0.3-0.68-0.6-1.04-0.88c-0.36-0.28-0.72-0.56-1.09-0.82"/>
		<path class="st6" d="M58.7,29.99c-0.64,0.82-1.49,1.89-2.01,2.79s-1.01,1.88-1.4,3c-0.3-0.58-0.89-1.25-1.39-1.67
			c-0.5-0.42-1.37-0.92-1.92-1.26c0.41-0.88,1-2.04,1.51-2.87s1.15-1.72,1.75-2.49c0.61,0.35,1.2,0.74,1.76,1.16
			C57.56,29.08,58.18,29.51,58.7,29.99z"/>
		<path class="st6" d="M88.46,29.99c-0.64,0.82-1.49,1.89-2.01,2.79c-0.52,0.9-1.01,1.88-1.4,3c-0.3-0.58-0.89-1.25-1.39-1.67
			c-0.5-0.42-1.37-0.92-1.92-1.26c0.41-0.88,1-2.04,1.51-2.87s1.15-1.72,1.75-2.49c0.61,0.35,1.2,0.74,1.76,1.16
			C87.32,29.08,87.95,29.51,88.46,29.99z"/>
		<path class="st5" d="M95.53,43.61c0,10.89-8.96,19.84-19.84,19.84S55.85,54.5,55.85,43.61"/>
		<path class="st5" d="M65.77,43.61c0,10.89-8.96,19.84-19.84,19.84S26.09,54.5,26.09,43.61"/>
		<path id="SVGID_x5F_15_x5F_" class="st8" d="M26.09,43.61c0,10.89,8.96,19.84,19.84,19.84s19.84-8.96,19.84-19.84
			c0-5.44,4.48-9.92,9.92-9.92s9.92,4.48,9.92,9.92"/>
		<text>		<textPath  xlink:href="#SVGID_x5F_15_x5F_" startOffset="18.0447%">
<tspan  class="st9" style="font-family:'ShinGoPro-ExLight-90ms-RKSJ-H'; font-size:7px;">じょうほ</tspan><tspan  class="st9" style="font-family:'ShinGoPro-ExLight-90ms-RKSJ-H'; font-size:7px; letter-spacing:-100;">う</tspan><tspan  class="st9" style="font-family:'ShinGoPro-ExLight-90ms-RKSJ-H'; font-size:7px; letter-spacing:-300;">ぎじゅつ</tspan>		</textPath>
</text>
		<path class="st6" d="M55.85,43.61c0,5.44-4.48,9.92-9.92,9.92s-9.92-4.48-9.92-9.92"/>
		<path class="st6" d="M85.61,43.61c0,5.44-4.48,9.92-9.92,9.92s-9.92-4.48-9.92-9.92"/>
		<path class="st6" d="M33.16,57.24c0.64-0.82,1.49-1.89,2.01-2.79c0.52-0.9,1.01-1.88,1.4-3c0.3,0.58,0.89,1.25,1.39,1.67
			c0.5,0.42,1.37,0.92,1.92,1.26c-0.41,0.88-1,2.04-1.51,2.87c-0.51,0.83-1.15,1.72-1.75,2.49c-0.61-0.35-1.2-0.74-1.76-1.16
			C34.3,58.15,33.67,57.72,33.16,57.24z"/>
		<path class="st6" d="M62.92,57.24c0.64-0.82,1.49-1.89,2.01-2.79s1.01-1.88,1.4-3c0.3,0.58,0.89,1.25,1.39,1.67
			c0.5,0.42,1.37,0.92,1.92,1.26c-0.41,0.88-1,2.04-1.51,2.87s-1.15,1.72-1.75,2.49c-0.61-0.35-1.2-0.74-1.76-1.16
			S63.44,57.72,62.92,57.24z"/>
		<path class="st7" d="M58.73,61.9c0.37-0.26,0.74-0.53,1.09-0.82c0.36-0.28,0.7-0.58,1.04-0.88h-0.11c0.34,0.3,0.68,0.6,1.04,0.88
			c0.36,0.28,0.72,0.56,1.09,0.82"/>
		<path class="st7" d="M88.5,61.9c0.37-0.26,0.74-0.53,1.09-0.82c0.36-0.28,0.7-0.58,1.04-0.88h-0.11c0.34,0.3,0.68,0.6,1.04,0.88
			c0.36,0.28,0.72,0.56,1.09,0.82"/>
		<path id="SVGID_x5F_16_x5F_" class="st8" d="M36.01,43.61c0-5.44,4.48-9.92,9.92-9.92s9.92,4.48,9.92,9.92"/>
		<text>		<textPath  xlink:href="#SVGID_x5F_16_x5F_" startOffset="0%">
<tspan  class="st9" style="font-family:'ShinGoPr6-ExLight-90ms-RKSJ-H'; font-size:7px; letter-spacing:-280;">・りか</tspan>		</textPath>
</text>
		<path id="SVGID_x5F_17_x5F_" class="st8" d="M85.61,43.61c0,5.44-4.48,9.92-9.92,9.92s-9.92-4.48-9.92-9.92"/>
		<text>		<textPath  xlink:href="#SVGID_x5F_17_x5F_" startOffset="0%">
<tspan  class="st9" style="font-family:'ShinGoPr6-ExLight-90ms-RKSJ-H'; font-size:7px; letter-spacing:-225;">うどつて</tspan>		</textPath>
</text>
		<g>
			<path class="st9" d="M39.79,40.02c-0.09-0.06-0.18-0.1-0.26-0.1C39.23,39.92,39,40.37,39,41c0,0.46,0.11,1.02,0.38,1.6
				c0.24,0.5,0.51,1.04,0.8,1.68c0.34,0.76,0.48,1.6,0.48,2.37c0,1.46-0.52,2.66-1.31,2.66c-0.16,0-0.33-0.06-0.5-0.15
				c-0.02-0.01-0.04-0.01-0.07-0.01c-0.08,0-0.12,0.08-0.21,0.08c-0.16,0-0.26-0.17-0.29-0.49c-0.03-0.42-0.12-1.47-0.14-1.93v-0.07
				c0-0.38,0.13-0.6,0.27-0.6c0.12,0,0.24,0.15,0.28,0.5c0.1,0.73,0.18,0.97,0.33,1.11c0.12,0.1,0.24,0.15,0.35,0.15
				c0.35,0,0.64-0.48,0.64-1.22c0-0.45-0.1-0.98-0.35-1.55c-0.27-0.62-0.49-1.02-0.81-1.74c-0.3-0.69-0.45-1.57-0.45-2.38
				c0-1.29,0.38-2.42,1.11-2.42c0.1,0,0.21,0.03,0.32,0.07c0.03,0.01,0.1,0.07,0.14,0.07c0.01,0,0.02,0,0.03-0.01
				c0.07-0.08,0.15-0.13,0.21-0.13c0.13,0,0.25,0.15,0.28,0.52c0.02,0.25,0.06,1,0.08,1.37v0.08c0,0.39-0.13,0.66-0.27,0.66
				c-0.1,0-0.2-0.13-0.26-0.41c-0.02-0.1-0.03-0.25-0.07-0.41C39.94,40.23,39.89,40.09,39.79,40.02z"/>
			<path class="st9" d="M43.35,39.84c-0.12,0.01-0.21,0.08-0.21,0.38c-0.01,0.94-0.01,2.21-0.01,3.52c0,1.32,0,2.63,0.01,3.67v0.1
				c0.01,0.28,0.1,0.38,0.23,0.38c0.17,0,0.26,0.34,0.26,0.67c0,0.32-0.09,0.66-0.29,0.66c-0.18,0-0.37-0.01-0.52-0.01h-0.09
				c-0.13,0-0.31,0.01-0.44,0.01c-0.2,0-0.29-0.32-0.29-0.64c0-0.35,0.1-0.69,0.27-0.69c0.13,0,0.23-0.07,0.27-0.43
				c0.01-1.18,0.01-2.73,0.01-4.26c0-1.13-0.01-2.2-0.01-2.94c0-0.36-0.03-0.41-0.2-0.41c-0.11,0-0.25,0.01-0.38,0.04
				c-0.2,0.03-0.36,0.43-0.43,0.88c-0.05,0.35-0.17,0.52-0.29,0.52c-0.13,0-0.25-0.22-0.25-0.67c0-0.04,0-0.1,0.01-0.15
				c0.02-0.35,0.07-0.74,0.1-1.12c0.05-0.56,0.18-0.7,0.31-0.7c0.07,0,0.14,0.03,0.2,0.07c0.05,0.03,0.08,0.07,0.12,0.07
				c0.01,0,0.03-0.01,0.04-0.01c0.15-0.06,0.45-0.07,0.75-0.07c0.19-0.01,0.41-0.01,0.56-0.01c0.21,0.01,0.48,0,0.66,0.06h0.06
				c0.05,0,0.09-0.01,0.13-0.07c0.04-0.04,0.11-0.1,0.19-0.1c0.14,0,0.31,0.15,0.35,0.69c0.03,0.38,0.07,0.64,0.09,0.99
				c0.01,0.07,0.01,0.13,0.01,0.18c0,0.48-0.12,0.71-0.26,0.71c-0.1,0-0.21-0.15-0.26-0.46c-0.1-0.53-0.25-0.78-0.39-0.8
				C43.55,39.85,43.42,39.84,43.35,39.84z"/>
			<path class="st9" d="M46.56,47.92c0.15,0,0.31,0,0.39-0.01c0.3-0.03,0.41-0.56,0.41-0.9v-0.03c0-0.52,0.15-0.77,0.31-0.77
				c0.15,0,0.31,0.25,0.31,0.77v0.04c0,0.84-0.19,2.16-0.96,2.18h-0.13c-0.38,0-0.82-0.03-1.19-0.03c-0.21,0-0.39,0.01-0.52,0.04
				c-0.02,0-0.03,0.01-0.05,0.01c-0.2,0-0.3-0.35-0.3-0.69c0-0.35,0.1-0.7,0.31-0.7h0.03c0.15,0,0.17-0.28,0.17-0.56
				c0-0.1-0.01-0.2-0.01-0.29c0-1.25,0.01-4.97,0.01-6.23v-0.2c0-0.25-0.01-0.55-0.13-0.56c-0.22,0-0.33-0.35-0.33-0.69
				c0-0.32,0.1-0.64,0.31-0.64h0.04c0.14,0.03,0.29,0.04,0.44,0.04c0.15,0,0.3-0.01,0.45-0.03c0.11,0,0.22-0.01,0.33-0.01
				c0.17,0,0.32,0.01,0.45,0.07c0.07,0.03,0.12,0.04,0.16,0.04c0.04,0,0.07-0.01,0.11-0.06c0.05-0.06,0.12-0.1,0.2-0.1
				c0.13,0,0.27,0.13,0.3,0.56c0.03,0.38,0.06,0.66,0.06,1.01v0.11c0,0.53-0.13,0.81-0.27,0.81c-0.1,0-0.21-0.15-0.26-0.48
				c-0.07-0.41-0.26-0.67-0.54-0.7c-0.07,0-0.15-0.01-0.23-0.01c-0.12,0-0.24,0.01-0.31,0.03c-0.19,0.04-0.2,0.2-0.21,0.55
				c-0.01,0.35-0.01,1.34-0.02,2.16c0,0.21,0.02,0.25,0.1,0.28c0.03,0,0.11,0.01,0.2,0.01c0.13,0,0.29-0.01,0.38-0.03
				c0.07-0.01,0.16-0.08,0.16-0.22c0.03-0.41,0.15-0.59,0.27-0.59c0.12,0,0.25,0.21,0.25,0.59v0.04c-0.01,0.28-0.01,0.53-0.01,0.8
				c0,0.27,0.01,0.52,0.01,0.79v0.04c0,0.41-0.12,0.63-0.25,0.63c-0.12,0-0.24-0.18-0.27-0.56c-0.01-0.11-0.08-0.18-0.16-0.2
				c-0.1-0.03-0.22-0.04-0.31-0.04c-0.13,0-0.24,0.01-0.27,0.04c-0.09,0.03-0.1,0.14-0.1,0.28c0,1.05,0.01,2.35,0.01,2.88
				c0.01,0.22,0.03,0.48,0.26,0.49C46.24,47.92,46.4,47.92,46.56,47.92z"/>
			<path class="st9" d="M52.43,41.34c-0.01-0.14-0.03-0.22-0.05-0.22s-0.05,0.07-0.07,0.22c-0.19,1.74-0.5,4.64-0.68,6.11
				c-0.11,0.83-0.37,1.25-0.63,1.25s-0.53-0.42-0.63-1.25c-0.19-1.47-0.5-4.4-0.69-6.13c-0.02-0.18-0.04-0.25-0.07-0.25
				s-0.04,0.1-0.06,0.27c-0.07,1.54-0.19,4.37-0.27,6.19v0.06c0,0.14,0.02,0.31,0.13,0.31c0.16,0,0.25,0.34,0.25,0.67
				s-0.08,0.66-0.27,0.66c-0.16,0-0.3-0.01-0.44-0.01h-0.08c-0.12,0-0.28,0.01-0.4,0.01c-0.19,0-0.28-0.35-0.28-0.69
				c0-0.34,0.08-0.67,0.25-0.67c0.14,0,0.21-0.17,0.25-0.43c0.12-2.23,0.29-5.06,0.39-6.86v-0.08c0-0.24-0.04-0.36-0.12-0.36h-0.05
				c-0.21,0-0.3-0.35-0.3-0.7c0-0.36,0.1-0.74,0.3-0.74h0.18c0.46,0,0.83,0.1,0.96,1.18c0.2,1.68,0.73,6.15,0.83,6.89
				c0.03,0.2,0.07,0.29,0.12,0.29s0.09-0.1,0.12-0.29c0.11-0.74,0.64-5.21,0.84-6.89c0.12-1.08,0.49-1.18,0.96-1.18h0.17
				c0.2,0,0.3,0.35,0.3,0.71s-0.1,0.73-0.31,0.73h-0.03c-0.08,0-0.12,0.14-0.12,0.36v0.08c0.08,1.81,0.26,4.64,0.38,6.86
				c0.04,0.27,0.11,0.43,0.25,0.43c0.16,0,0.25,0.34,0.25,0.67c0,0.35-0.09,0.69-0.28,0.69c-0.12,0-0.28-0.01-0.4-0.01h-0.08
				c-0.13,0-0.28,0.01-0.44,0.01c-0.18,0-0.27-0.32-0.27-0.66s0.09-0.67,0.25-0.67c0.1,0,0.13-0.18,0.13-0.32
				c0-0.04-0.01-0.07-0.01-0.13C52.62,45.61,52.49,42.85,52.43,41.34z"/>
		</g>
		<g>
			<path class="st9" d="M69.56,40.02c-0.09-0.06-0.18-0.1-0.26-0.1c-0.31,0-0.53,0.45-0.53,1.08c0,0.46,0.11,1.02,0.38,1.6
				c0.24,0.5,0.51,1.04,0.8,1.68c0.34,0.76,0.48,1.6,0.48,2.37c0,1.46-0.52,2.66-1.31,2.66c-0.16,0-0.33-0.06-0.5-0.15
				c-0.02-0.01-0.04-0.01-0.07-0.01c-0.08,0-0.12,0.08-0.21,0.08c-0.16,0-0.26-0.17-0.29-0.49c-0.03-0.42-0.12-1.47-0.14-1.93v-0.07
				c0-0.38,0.13-0.6,0.27-0.6c0.12,0,0.24,0.15,0.28,0.5c0.1,0.73,0.18,0.97,0.33,1.11c0.12,0.1,0.24,0.15,0.35,0.15
				c0.35,0,0.64-0.48,0.64-1.22c0-0.45-0.1-0.98-0.35-1.55c-0.27-0.62-0.49-1.02-0.81-1.74c-0.3-0.69-0.45-1.57-0.45-2.38
				c0-1.29,0.38-2.42,1.11-2.42c0.1,0,0.21,0.03,0.32,0.07c0.03,0.01,0.1,0.07,0.14,0.07c0.01,0,0.02,0,0.03-0.01
				c0.07-0.08,0.15-0.13,0.21-0.13c0.13,0,0.25,0.15,0.28,0.52c0.02,0.25,0.06,1,0.08,1.37v0.08c0,0.39-0.13,0.66-0.27,0.66
				c-0.1,0-0.2-0.13-0.26-0.41c-0.02-0.1-0.03-0.25-0.07-0.41C69.71,40.23,69.65,40.09,69.56,40.02z"/>
			<path class="st9" d="M73.11,39.84c-0.12,0.01-0.21,0.08-0.21,0.38c-0.01,0.94-0.01,2.21-0.01,3.52c0,1.32,0,2.63,0.01,3.67v0.1
				c0.01,0.28,0.1,0.38,0.23,0.38c0.17,0,0.26,0.34,0.26,0.67c0,0.32-0.09,0.66-0.29,0.66c-0.18,0-0.37-0.01-0.52-0.01H72.5
				c-0.13,0-0.31,0.01-0.44,0.01c-0.2,0-0.29-0.32-0.29-0.64c0-0.35,0.1-0.69,0.27-0.69c0.13,0,0.23-0.07,0.27-0.43
				c0.01-1.18,0.01-2.73,0.01-4.26c0-1.13-0.01-2.2-0.01-2.94c0-0.36-0.03-0.41-0.2-0.41c-0.11,0-0.25,0.01-0.38,0.04
				c-0.2,0.03-0.36,0.43-0.43,0.88c-0.05,0.35-0.17,0.52-0.29,0.52c-0.13,0-0.25-0.22-0.25-0.67c0-0.04,0-0.1,0.01-0.15
				c0.02-0.35,0.07-0.74,0.1-1.12c0.05-0.56,0.18-0.7,0.31-0.7c0.07,0,0.14,0.03,0.2,0.07c0.05,0.03,0.08,0.07,0.12,0.07
				c0.01,0,0.03-0.01,0.04-0.01c0.15-0.06,0.45-0.07,0.75-0.07c0.19-0.01,0.41-0.01,0.56-0.01c0.21,0.01,0.48,0,0.66,0.06h0.06
				c0.05,0,0.09-0.01,0.13-0.07c0.04-0.04,0.11-0.1,0.19-0.1c0.14,0,0.31,0.15,0.35,0.69c0.03,0.38,0.07,0.64,0.09,0.99
				c0.01,0.07,0.01,0.13,0.01,0.18c0,0.48-0.12,0.71-0.26,0.71c-0.1,0-0.21-0.15-0.26-0.46c-0.1-0.53-0.25-0.78-0.39-0.8
				C73.31,39.85,73.19,39.84,73.11,39.84z"/>
			<path class="st9" d="M76.32,47.92c0.15,0,0.31,0,0.39-0.01c0.3-0.03,0.41-0.56,0.41-0.9v-0.03c0-0.52,0.15-0.77,0.31-0.77
				c0.15,0,0.31,0.25,0.31,0.77v0.04c0,0.84-0.19,2.16-0.96,2.18h-0.13c-0.38,0-0.82-0.03-1.19-0.03c-0.21,0-0.39,0.01-0.52,0.04
				c-0.02,0-0.03,0.01-0.05,0.01c-0.2,0-0.3-0.35-0.3-0.69c0-0.35,0.1-0.7,0.31-0.7h0.03c0.15,0,0.17-0.28,0.17-0.56
				c0-0.1-0.01-0.2-0.01-0.29c0-1.25,0.01-4.97,0.01-6.23v-0.2c0-0.25-0.01-0.55-0.13-0.56c-0.22,0-0.33-0.35-0.33-0.69
				c0-0.32,0.1-0.64,0.31-0.64h0.04c0.14,0.03,0.29,0.04,0.44,0.04c0.15,0,0.3-0.01,0.45-0.03c0.11,0,0.22-0.01,0.33-0.01
				c0.17,0,0.32,0.01,0.45,0.07c0.07,0.03,0.12,0.04,0.16,0.04c0.04,0,0.07-0.01,0.11-0.06c0.05-0.06,0.12-0.1,0.2-0.1
				c0.13,0,0.27,0.13,0.3,0.56c0.03,0.38,0.06,0.66,0.06,1.01v0.11c0,0.53-0.13,0.81-0.27,0.81c-0.1,0-0.21-0.15-0.26-0.48
				c-0.07-0.41-0.26-0.67-0.54-0.7c-0.07,0-0.15-0.01-0.23-0.01c-0.12,0-0.24,0.01-0.31,0.03c-0.19,0.04-0.2,0.2-0.21,0.55
				c-0.01,0.35-0.01,1.34-0.02,2.16c0,0.21,0.02,0.25,0.1,0.28c0.03,0,0.11,0.01,0.2,0.01c0.13,0,0.29-0.01,0.38-0.03
				c0.07-0.01,0.16-0.08,0.16-0.22c0.03-0.41,0.15-0.59,0.27-0.59c0.12,0,0.25,0.21,0.25,0.59v0.04c-0.01,0.28-0.01,0.53-0.01,0.8
				c0,0.27,0.01,0.52,0.01,0.79v0.04c0,0.41-0.12,0.63-0.25,0.63c-0.12,0-0.24-0.18-0.27-0.56c-0.01-0.11-0.08-0.18-0.16-0.2
				c-0.1-0.03-0.22-0.04-0.31-0.04c-0.13,0-0.24,0.01-0.27,0.04c-0.09,0.03-0.1,0.14-0.1,0.28c0,1.05,0.01,2.35,0.01,2.88
				c0.01,0.22,0.03,0.48,0.26,0.49C76.01,47.92,76.16,47.92,76.32,47.92z"/>
			<path class="st9" d="M82.2,41.34c-0.01-0.14-0.03-0.22-0.05-0.22s-0.05,0.07-0.07,0.22c-0.19,1.74-0.5,4.64-0.68,6.11
				c-0.11,0.83-0.37,1.25-0.63,1.25s-0.53-0.42-0.63-1.25c-0.19-1.47-0.5-4.4-0.69-6.13c-0.02-0.18-0.04-0.25-0.07-0.25
				s-0.04,0.1-0.06,0.27c-0.07,1.54-0.19,4.37-0.27,6.19v0.06c0,0.14,0.02,0.31,0.13,0.31c0.16,0,0.25,0.34,0.25,0.67
				s-0.08,0.66-0.27,0.66c-0.16,0-0.3-0.01-0.44-0.01h-0.08c-0.12,0-0.28,0.01-0.4,0.01c-0.19,0-0.28-0.35-0.28-0.69
				c0-0.34,0.08-0.67,0.25-0.67c0.14,0,0.21-0.17,0.25-0.43c0.12-2.23,0.29-5.06,0.39-6.86v-0.08c0-0.24-0.04-0.36-0.12-0.36h-0.05
				c-0.21,0-0.3-0.35-0.3-0.7c0-0.36,0.1-0.74,0.3-0.74h0.18c0.46,0,0.83,0.1,0.96,1.18c0.2,1.68,0.73,6.15,0.83,6.89
				c0.03,0.2,0.07,0.29,0.12,0.29s0.09-0.1,0.12-0.29c0.11-0.74,0.64-5.21,0.84-6.89c0.12-1.08,0.49-1.18,0.96-1.18h0.17
				c0.2,0,0.3,0.35,0.3,0.71s-0.1,0.73-0.31,0.73H82.8c-0.08,0-0.12,0.14-0.12,0.36v0.08c0.08,1.81,0.26,4.64,0.38,6.86
				c0.04,0.27,0.11,0.43,0.25,0.43c0.16,0,0.25,0.34,0.25,0.67c0,0.35-0.09,0.69-0.28,0.69c-0.12,0-0.28-0.01-0.4-0.01H82.8
				c-0.13,0-0.28,0.01-0.44,0.01c-0.18,0-0.27-0.32-0.27-0.66s0.09-0.67,0.25-0.67c0.1,0,0.13-0.18,0.13-0.32
				c0-0.04-0.01-0.07-0.01-0.13C82.38,45.61,82.26,42.85,82.2,41.34z"/>
		</g>
	</g>
	<path class="st10" d="M-23.52,43.61c0-5.44,4.48-9.92,9.92-9.92s9.92,4.48,9.92,9.92"/>
	<path class="st10" d="M6.24,43.61c0-5.44,4.48-9.92,9.92-9.92s9.92,4.48,9.92,9.92"/>
	<path class="st3" d="M3.24,25.45c-0.37,0.26-0.74,0.53-1.09,0.82c-0.36,0.28-0.7,0.58-1.04,0.88h0.11c-0.34-0.3-0.68-0.6-1.04-0.88
		c-0.36-0.28-0.72-0.56-1.09-0.82"/>
	<path class="st3" d="M33.01,25.45c-0.37,0.26-0.74,0.53-1.09,0.82c-0.36,0.28-0.7,0.58-1.04,0.88h0.11
		c-0.34-0.3-0.68-0.6-1.04-0.88c-0.36-0.28-0.72-0.56-1.09-0.82"/>
	<path class="st10" d="M-0.83,29.99c-0.64,0.82-1.49,1.89-2.01,2.79s-1.01,1.88-1.4,3c-0.3-0.58-0.89-1.25-1.39-1.67
		s-1.37-0.92-1.92-1.26c0.41-0.88,1-2.04,1.51-2.87s1.15-1.72,1.75-2.49c0.61,0.35,1.2,0.74,1.76,1.16S-1.35,29.51-0.83,29.99z"/>
	<path class="st10" d="M28.93,29.99c-0.64,0.82-1.49,1.89-2.01,2.79c-0.52,0.9-1.01,1.88-1.4,3c-0.3-0.58-0.89-1.25-1.39-1.67
		s-1.37-0.92-1.92-1.26c0.41-0.88,1-2.04,1.51-2.87c0.51-0.83,1.15-1.72,1.75-2.49c0.61,0.35,1.2,0.74,1.76,1.16
		S28.42,29.51,28.93,29.99z"/>
	<path class="st2" d="M36.01,43.61c0,10.89-8.96,19.84-19.84,19.84S-3.68,54.5-3.68,43.61"/>
	<path class="st2" d="M6.24,43.61c0,10.89-8.96,19.84-19.84,19.84s-19.84-8.96-19.84-19.84"/>
	<g class="st4">
		<path id="SVGID_x5F_18_x5F_" class="st8" d="M-33.44,43.61c0,10.89,8.96,19.84,19.84,19.84S6.24,54.5,6.24,43.61
			c0-5.44,4.48-9.92,9.92-9.92s9.92,4.48,9.92,9.92"/>
		<text>		<textPath  xlink:href="#SVGID_x5F_18_x5F_" startOffset="18.0447%">
<tspan  class="st9" style="font-family:'ShinGoPro-ExLight-90ms-RKSJ-H'; font-size:7px;">じょうほ</tspan><tspan  class="st9" style="font-family:'ShinGoPro-ExLight-90ms-RKSJ-H'; font-size:7px; letter-spacing:-100;">う</tspan><tspan  class="st9" style="font-family:'ShinGoPro-ExLight-90ms-RKSJ-H'; font-size:7px; letter-spacing:-300;">ぎじゅつ</tspan>		</textPath>
</text>
	</g>
	<path class="st10" d="M-3.68,43.61c0,5.44-4.48,9.92-9.92,9.92s-9.92-4.48-9.92-9.92"/>
	<path class="st10" d="M26.09,43.61c0,5.44-4.48,9.92-9.92,9.92s-9.92-4.48-9.92-9.92"/>
	<path class="st10" d="M-26.37,57.24c0.64-0.82,1.49-1.89,2.01-2.79c0.52-0.9,1.01-1.88,1.4-3c0.3,0.58,0.89,1.25,1.39,1.67
		c0.5,0.42,1.37,0.92,1.92,1.26c-0.41,0.88-1,2.04-1.51,2.87c-0.51,0.83-1.15,1.72-1.75,2.49c-0.61-0.35-1.2-0.74-1.76-1.16
		S-25.85,57.72-26.37,57.24z"/>
	<path class="st10" d="M3.4,57.24c0.64-0.82,1.49-1.89,2.01-2.79s1.01-1.88,1.4-3c0.3,0.58,0.89,1.25,1.39,1.67
		c0.5,0.42,1.37,0.92,1.92,1.26c-0.41,0.88-1,2.04-1.51,2.87c-0.51,0.83-1.15,1.72-1.75,2.49c-0.61-0.35-1.2-0.74-1.76-1.16
		S3.91,57.72,3.4,57.24z"/>
	<path class="st3" d="M-0.8,61.9c0.37-0.26,0.74-0.53,1.09-0.82C0.65,60.8,1,60.51,1.34,60.2H1.23c0.34,0.3,0.68,0.6,1.04,0.88
		c0.36,0.28,0.72,0.56,1.09,0.82"/>
	<g class="st4">
		<path id="SVGID_x5F_19_x5F__1_" class="st8" d="M-23.52,43.61c0-5.44,4.48-9.92,9.92-9.92s9.92,4.48,9.92,9.92"/>
		<text>		<textPath  xlink:href="#SVGID_x5F_19_x5F__1_" startOffset="0%">
<tspan  class="st9" style="font-family:'ShinGoPr6-ExLight-90ms-RKSJ-H'; font-size:7px; letter-spacing:-280;">・りか</tspan>		</textPath>
</text>
	</g>
	<g class="st4">
		<path class="st9" d="M-19.73,40.02c-0.09-0.06-0.18-0.1-0.26-0.1c-0.31,0-0.53,0.45-0.53,1.08c0,0.46,0.11,1.02,0.38,1.6
			c0.24,0.5,0.51,1.04,0.8,1.68c0.34,0.76,0.48,1.6,0.48,2.37c0,1.46-0.52,2.66-1.31,2.66c-0.16,0-0.33-0.06-0.5-0.15
			c-0.02-0.01-0.04-0.01-0.07-0.01c-0.08,0-0.12,0.08-0.21,0.08c-0.16,0-0.26-0.17-0.29-0.49c-0.03-0.42-0.12-1.47-0.14-1.93v-0.07
			c0-0.38,0.13-0.6,0.27-0.6c0.12,0,0.24,0.15,0.28,0.5c0.1,0.73,0.18,0.97,0.33,1.11c0.12,0.1,0.24,0.15,0.35,0.15
			c0.35,0,0.64-0.48,0.64-1.22c0-0.45-0.1-0.98-0.35-1.55c-0.27-0.62-0.49-1.02-0.81-1.74c-0.3-0.69-0.45-1.57-0.45-2.38
			c0-1.29,0.38-2.42,1.11-2.42c0.1,0,0.21,0.03,0.32,0.07c0.03,0.01,0.1,0.07,0.14,0.07c0.01,0,0.02,0,0.03-0.01
			c0.07-0.08,0.15-0.13,0.21-0.13c0.13,0,0.25,0.15,0.28,0.52c0.02,0.25,0.06,1,0.08,1.37v0.08c0,0.39-0.13,0.66-0.27,0.66
			c-0.1,0-0.2-0.13-0.26-0.41c-0.02-0.1-0.03-0.25-0.07-0.41C-19.58,40.23-19.64,40.09-19.73,40.02z"/>
		<path class="st9" d="M-16.18,39.84c-0.12,0.01-0.21,0.08-0.21,0.38c-0.01,0.94-0.01,2.21-0.01,3.52c0,1.32,0,2.63,0.01,3.67v0.1
			c0.01,0.28,0.1,0.38,0.23,0.38c0.17,0,0.26,0.34,0.26,0.67c0,0.32-0.09,0.66-0.29,0.66c-0.18,0-0.37-0.01-0.52-0.01h-0.09
			c-0.13,0-0.31,0.01-0.44,0.01c-0.2,0-0.29-0.32-0.29-0.64c0-0.35,0.1-0.69,0.27-0.69c0.13,0,0.23-0.07,0.27-0.43
			c0.01-1.18,0.01-2.73,0.01-4.26c0-1.13-0.01-2.2-0.01-2.94c0-0.36-0.03-0.41-0.2-0.41c-0.11,0-0.25,0.01-0.38,0.04
			c-0.2,0.03-0.36,0.43-0.43,0.88c-0.05,0.35-0.17,0.52-0.29,0.52c-0.13,0-0.25-0.22-0.25-0.67c0-0.04,0-0.1,0.01-0.15
			c0.02-0.35,0.07-0.74,0.1-1.12c0.05-0.56,0.18-0.7,0.31-0.7c0.07,0,0.14,0.03,0.2,0.07c0.05,0.03,0.08,0.07,0.12,0.07
			c0.01,0,0.03-0.01,0.04-0.01c0.15-0.06,0.45-0.07,0.75-0.07c0.19-0.01,0.41-0.01,0.56-0.01c0.21,0.01,0.48,0,0.66,0.06h0.06
			c0.05,0,0.09-0.01,0.13-0.07c0.04-0.04,0.11-0.1,0.19-0.1c0.14,0,0.31,0.15,0.35,0.69c0.03,0.38,0.07,0.64,0.09,0.99
			c0.01,0.07,0.01,0.13,0.01,0.18c0,0.48-0.12,0.71-0.26,0.71c-0.1,0-0.21-0.15-0.26-0.46c-0.1-0.53-0.25-0.78-0.39-0.8
			C-15.98,39.85-16.1,39.84-16.18,39.84z"/>
		<path class="st9" d="M-12.97,47.92c0.15,0,0.31,0,0.39-0.01c0.3-0.03,0.41-0.56,0.41-0.9v-0.03c0-0.52,0.15-0.77,0.31-0.77
			c0.15,0,0.31,0.25,0.31,0.77v0.04c0,0.84-0.19,2.16-0.96,2.18h-0.13c-0.38,0-0.82-0.03-1.19-0.03c-0.21,0-0.39,0.01-0.52,0.04
			c-0.02,0-0.03,0.01-0.05,0.01c-0.2,0-0.3-0.35-0.3-0.69c0-0.35,0.1-0.7,0.31-0.7h0.03c0.15,0,0.17-0.28,0.17-0.56
			c0-0.1-0.01-0.2-0.01-0.29c0-1.25,0.01-4.97,0.01-6.23v-0.2c0-0.25-0.01-0.55-0.13-0.56c-0.22,0-0.33-0.35-0.33-0.69
			c0-0.32,0.1-0.64,0.31-0.64h0.04c0.14,0.03,0.29,0.04,0.44,0.04c0.15,0,0.3-0.01,0.45-0.03c0.11,0,0.22-0.01,0.33-0.01
			c0.17,0,0.32,0.01,0.45,0.07c0.07,0.03,0.12,0.04,0.16,0.04c0.04,0,0.07-0.01,0.11-0.06c0.05-0.06,0.12-0.1,0.2-0.1
			c0.13,0,0.27,0.13,0.3,0.56c0.03,0.38,0.06,0.66,0.06,1.01v0.11c0,0.53-0.13,0.81-0.27,0.81c-0.1,0-0.21-0.15-0.26-0.48
			c-0.07-0.41-0.26-0.67-0.54-0.7c-0.07,0-0.15-0.01-0.23-0.01c-0.12,0-0.24,0.01-0.31,0.03c-0.19,0.04-0.2,0.2-0.21,0.55
			c-0.01,0.35-0.01,1.34-0.02,2.16c0,0.21,0.02,0.25,0.1,0.28c0.03,0,0.11,0.01,0.2,0.01c0.13,0,0.29-0.01,0.38-0.03
			c0.07-0.01,0.16-0.08,0.16-0.22c0.03-0.41,0.15-0.59,0.27-0.59c0.12,0,0.25,0.21,0.25,0.59v0.04c-0.01,0.28-0.01,0.53-0.01,0.8
			c0,0.27,0.01,0.52,0.01,0.79v0.04c0,0.41-0.12,0.63-0.25,0.63c-0.12,0-0.24-0.18-0.27-0.56c-0.01-0.11-0.08-0.18-0.16-0.2
			c-0.1-0.03-0.22-0.04-0.31-0.04c-0.13,0-0.24,0.01-0.27,0.04c-0.09,0.03-0.1,0.14-0.1,0.28c0,1.05,0.01,2.35,0.01,2.88
			c0.01,0.22,0.03,0.48,0.26,0.49C-13.28,47.92-13.13,47.92-12.97,47.92z"/>
		<path class="st9" d="M-7.1,41.34c-0.01-0.14-0.03-0.22-0.05-0.22s-0.05,0.07-0.07,0.22c-0.19,1.74-0.5,4.64-0.68,6.11
			c-0.11,0.83-0.37,1.25-0.63,1.25s-0.53-0.42-0.63-1.25c-0.19-1.47-0.5-4.4-0.69-6.13c-0.02-0.18-0.04-0.25-0.07-0.25
			s-0.04,0.1-0.06,0.27c-0.07,1.54-0.19,4.37-0.27,6.19v0.06c0,0.14,0.02,0.31,0.13,0.31c0.16,0,0.25,0.34,0.25,0.67
			s-0.08,0.66-0.27,0.66c-0.16,0-0.3-0.01-0.44-0.01h-0.08c-0.12,0-0.28,0.01-0.4,0.01c-0.19,0-0.28-0.35-0.28-0.69
			c0-0.34,0.08-0.67,0.25-0.67c0.14,0,0.21-0.17,0.25-0.43c0.12-2.23,0.29-5.06,0.39-6.86v-0.08c0-0.24-0.04-0.36-0.12-0.36h-0.05
			c-0.21,0-0.3-0.35-0.3-0.7c0-0.36,0.1-0.74,0.3-0.74h0.18c0.46,0,0.83,0.1,0.96,1.18c0.2,1.68,0.73,6.15,0.83,6.89
			c0.03,0.2,0.07,0.29,0.12,0.29s0.09-0.1,0.12-0.29c0.11-0.74,0.64-5.21,0.84-6.89c0.12-1.08,0.49-1.18,0.96-1.18h0.17
			c0.2,0,0.3,0.35,0.3,0.71s-0.1,0.73-0.31,0.73h-0.03c-0.08,0-0.12,0.14-0.12,0.36v0.08c0.08,1.81,0.26,4.64,0.38,6.86
			c0.04,0.27,0.11,0.43,0.25,0.43c0.16,0,0.25,0.34,0.25,0.67c0,0.35-0.09,0.69-0.28,0.69c-0.12,0-0.28-0.01-0.4-0.01h-0.08
			c-0.13,0-0.28,0.01-0.44,0.01c-0.18,0-0.27-0.32-0.27-0.66s0.09-0.67,0.25-0.67c0.1,0,0.13-0.18,0.13-0.32
			c0-0.04-0.01-0.07-0.01-0.13C-6.91,45.61-7.03,42.85-7.1,41.34z"/>
	</g>
	<g class="st4">
		<path class="st9" d="M10.03,40.02c-0.09-0.06-0.18-0.1-0.26-0.1c-0.31,0-0.53,0.45-0.53,1.08c0,0.46,0.11,1.02,0.38,1.6
			c0.24,0.5,0.51,1.04,0.8,1.68c0.34,0.76,0.48,1.6,0.48,2.37c0,1.46-0.52,2.66-1.31,2.66c-0.16,0-0.33-0.06-0.5-0.15
			c-0.02-0.01-0.04-0.01-0.07-0.01c-0.08,0-0.12,0.08-0.21,0.08c-0.16,0-0.26-0.17-0.29-0.49c-0.03-0.42-0.12-1.47-0.14-1.93v-0.07
			c0-0.38,0.13-0.6,0.27-0.6c0.12,0,0.24,0.15,0.28,0.5c0.1,0.73,0.18,0.97,0.33,1.11c0.12,0.1,0.24,0.15,0.35,0.15
			c0.35,0,0.64-0.48,0.64-1.22c0-0.45-0.1-0.98-0.35-1.55c-0.27-0.62-0.49-1.02-0.81-1.74C8.79,42.7,8.64,41.81,8.64,41
			c0-1.29,0.38-2.42,1.11-2.42c0.1,0,0.21,0.03,0.32,0.07c0.03,0.01,0.1,0.07,0.14,0.07c0.01,0,0.02,0,0.03-0.01
			c0.07-0.08,0.15-0.13,0.21-0.13c0.13,0,0.25,0.15,0.28,0.52c0.02,0.25,0.06,1,0.08,1.37v0.08c0,0.39-0.13,0.66-0.27,0.66
			c-0.1,0-0.2-0.13-0.26-0.41c-0.02-0.1-0.03-0.25-0.07-0.41C10.18,40.23,10.13,40.09,10.03,40.02z"/>
		<path class="st9" d="M13.59,39.84c-0.12,0.01-0.21,0.08-0.21,0.38c-0.01,0.94-0.01,2.21-0.01,3.52c0,1.32,0,2.63,0.01,3.67v0.1
			c0.01,0.28,0.1,0.38,0.23,0.38c0.17,0,0.26,0.34,0.26,0.67c0,0.32-0.09,0.66-0.29,0.66c-0.18,0-0.37-0.01-0.52-0.01h-0.09
			c-0.13,0-0.31,0.01-0.44,0.01c-0.2,0-0.29-0.32-0.29-0.64c0-0.35,0.1-0.69,0.27-0.69c0.13,0,0.23-0.07,0.27-0.43
			c0.01-1.18,0.01-2.73,0.01-4.26c0-1.13-0.01-2.2-0.01-2.94c0-0.36-0.03-0.41-0.2-0.41c-0.11,0-0.25,0.01-0.38,0.04
			c-0.2,0.03-0.36,0.43-0.43,0.88c-0.05,0.35-0.17,0.52-0.29,0.52c-0.13,0-0.25-0.22-0.25-0.67c0-0.04,0-0.1,0.01-0.15
			c0.02-0.35,0.07-0.74,0.1-1.12c0.05-0.56,0.18-0.7,0.31-0.7c0.07,0,0.14,0.03,0.2,0.07c0.05,0.03,0.08,0.07,0.12,0.07
			c0.01,0,0.03-0.01,0.04-0.01c0.15-0.06,0.45-0.07,0.75-0.07c0.19-0.01,0.41-0.01,0.56-0.01c0.21,0.01,0.48,0,0.66,0.06h0.06
			c0.05,0,0.09-0.01,0.13-0.07c0.04-0.04,0.11-0.1,0.19-0.1c0.14,0,0.31,0.15,0.35,0.69c0.03,0.38,0.07,0.64,0.09,0.99
			c0.01,0.07,0.01,0.13,0.01,0.18c0,0.48-0.12,0.71-0.26,0.71c-0.1,0-0.21-0.15-0.26-0.46c-0.1-0.53-0.25-0.78-0.39-0.8
			C13.78,39.85,13.66,39.84,13.59,39.84z"/>
		<path class="st9" d="M16.79,47.92c0.15,0,0.31,0,0.39-0.01c0.3-0.03,0.41-0.56,0.41-0.9v-0.03c0-0.52,0.15-0.77,0.31-0.77
			c0.15,0,0.31,0.25,0.31,0.77v0.04c0,0.84-0.19,2.16-0.96,2.18h-0.13c-0.38,0-0.82-0.03-1.19-0.03c-0.21,0-0.39,0.01-0.52,0.04
			c-0.02,0-0.03,0.01-0.05,0.01c-0.2,0-0.3-0.35-0.3-0.69c0-0.35,0.1-0.7,0.31-0.7h0.03c0.15,0,0.17-0.28,0.17-0.56
			c0-0.1-0.01-0.2-0.01-0.29c0-1.25,0.01-4.97,0.01-6.23v-0.2c0-0.25-0.01-0.55-0.13-0.56c-0.22,0-0.33-0.35-0.33-0.69
			c0-0.32,0.1-0.64,0.31-0.64h0.04c0.14,0.03,0.29,0.04,0.44,0.04c0.15,0,0.3-0.01,0.45-0.03c0.11,0,0.22-0.01,0.33-0.01
			c0.17,0,0.32,0.01,0.45,0.07c0.07,0.03,0.12,0.04,0.16,0.04c0.04,0,0.07-0.01,0.11-0.06c0.05-0.06,0.12-0.1,0.2-0.1
			c0.13,0,0.27,0.13,0.3,0.56c0.03,0.38,0.06,0.66,0.06,1.01v0.11c0,0.53-0.13,0.81-0.27,0.81c-0.1,0-0.21-0.15-0.26-0.48
			c-0.07-0.41-0.26-0.67-0.54-0.7c-0.07,0-0.15-0.01-0.23-0.01c-0.12,0-0.24,0.01-0.31,0.03c-0.19,0.04-0.2,0.2-0.21,0.55
			c-0.01,0.35-0.01,1.34-0.02,2.16c0,0.21,0.02,0.25,0.1,0.28c0.03,0,0.11,0.01,0.2,0.01c0.13,0,0.29-0.01,0.38-0.03
			c0.07-0.01,0.16-0.08,0.16-0.22c0.03-0.41,0.15-0.59,0.27-0.59c0.12,0,0.25,0.21,0.25,0.59v0.04c-0.01,0.28-0.01,0.53-0.01,0.8
			c0,0.27,0.01,0.52,0.01,0.79v0.04c0,0.41-0.12,0.63-0.25,0.63c-0.12,0-0.24-0.18-0.27-0.56c-0.01-0.11-0.08-0.18-0.16-0.2
			c-0.1-0.03-0.22-0.04-0.31-0.04c-0.13,0-0.24,0.01-0.27,0.04c-0.09,0.03-0.1,0.14-0.1,0.28c0,1.05,0.01,2.35,0.01,2.88
			c0.01,0.22,0.03,0.48,0.26,0.49C16.48,47.92,16.64,47.92,16.79,47.92z"/>
		<path class="st9" d="M22.67,41.34c-0.01-0.14-0.03-0.22-0.05-0.22s-0.05,0.07-0.07,0.22c-0.19,1.74-0.5,4.64-0.68,6.11
			c-0.11,0.83-0.37,1.25-0.63,1.25s-0.53-0.42-0.63-1.25c-0.19-1.47-0.5-4.4-0.69-6.13c-0.02-0.18-0.04-0.25-0.07-0.25
			s-0.04,0.1-0.06,0.27c-0.07,1.54-0.19,4.37-0.27,6.19v0.06c0,0.14,0.02,0.31,0.13,0.31c0.16,0,0.25,0.34,0.25,0.67
			s-0.08,0.66-0.27,0.66c-0.16,0-0.3-0.01-0.44-0.01h-0.08c-0.12,0-0.28,0.01-0.4,0.01c-0.19,0-0.28-0.35-0.28-0.69
			c0-0.34,0.08-0.67,0.25-0.67c0.14,0,0.21-0.17,0.25-0.43c0.12-2.23,0.29-5.06,0.39-6.86v-0.08c0-0.24-0.04-0.36-0.12-0.36h-0.05
			c-0.21,0-0.3-0.35-0.3-0.7c0-0.36,0.1-0.74,0.3-0.74h0.18c0.46,0,0.83,0.1,0.96,1.18c0.2,1.68,0.73,6.15,0.83,6.89
			c0.03,0.2,0.07,0.29,0.12,0.29s0.09-0.1,0.12-0.29c0.11-0.74,0.64-5.21,0.84-6.89c0.12-1.08,0.49-1.18,0.96-1.18h0.17
			c0.2,0,0.3,0.35,0.3,0.71s-0.1,0.73-0.31,0.73h-0.03c-0.08,0-0.12,0.14-0.12,0.36v0.08c0.08,1.81,0.26,4.64,0.38,6.86
			c0.04,0.27,0.11,0.43,0.25,0.43c0.16,0,0.25,0.34,0.25,0.67c0,0.35-0.09,0.69-0.28,0.69c-0.12,0-0.28-0.01-0.4-0.01h-0.08
			c-0.13,0-0.28,0.01-0.44,0.01c-0.18,0-0.27-0.32-0.27-0.66s0.09-0.67,0.25-0.67c0.1,0,0.13-0.18,0.13-0.32
			c0-0.04-0.01-0.07-0.01-0.13C22.85,45.61,22.73,42.85,22.67,41.34z"/>
	</g>
	<g class="st4">
		<path id="SVGID_x5F_20_x5F_" class="st8" d="M26.09,43.61c0,5.44-4.48,9.92-9.92,9.92s-9.92-4.48-9.92-9.92"/>
		<text>		<textPath  xlink:href="#SVGID_x5F_20_x5F_" startOffset="0%">
<tspan  class="st9" style="font-family:'ShinGoPr6-ExLight-90ms-RKSJ-H'; font-size:7px; letter-spacing:-225;">うどつて</tspan>		</textPath>
</text>
	</g>
</g>
</svg>
