<svg xmlns="http://www.w3.org/2000/svg" viewBox="0 0 171.97 171.97"><defs><style>.cls-1{fill:#48bbb3;}.cls-1,.cls-2,.cls-3{stroke:#231815;stroke-miterlimit:10;}.cls-2{fill:#fff;}.cls-3{fill:none;stroke-linecap:round;}.cls-4{fill:#d5d762;}.cls-5{fill:#f0a9c0;}.cls-6{fill:#c9bedd;}.cls-7{fill:#b5473f;}.cls-8{fill:#d6a05a;}.cls-9{fill:#94b35d;}</style></defs><g id="レイヤー_2" data-name="レイヤー 2"><g id="レイヤー_1-2" data-name="レイヤー 1"><path class="cls-1" d="M55.58.5h115.9a0,0,0,0,1,0,0V116.4a55.08,55.08,0,0,1-55.08,55.08H.5a0,0,0,0,1,0,0V55.58A55.08,55.08,0,0,1,55.58.5Z"/><rect class="cls-2" x="34.64" y="19.54" width="102.68" height="132.89" rx="10.91"/><path class="cls-2" d="M45.55,19.54h80.87a10.91,10.91,0,0,1,10.91,10.91v0a0,0,0,0,1,0,0H34.64a0,0,0,0,1,0,0v0A10.91,10.91,0,0,1,45.55,19.54Z"/><line class="cls-3" x1="44.64" y1="38.17" x2="127.33" y2="38.17"/><line class="cls-3" x1="44.64" y1="45.16" x2="127.33" y2="45.16"/><line class="cls-3" x1="44.64" y1="52.15" x2="127.33" y2="52.15"/><rect class="cls-4" x="44.64" y="57.82" width="33.91" height="21.61" rx="6.39"/><line class="cls-3" x1="89.33" y1="61.72" x2="127.33" y2="61.72"/><line class="cls-3" x1="89.33" y1="68.71" x2="127.33" y2="68.71"/><line class="cls-3" x1="89.33" y1="75.7" x2="127.33" y2="75.7"/><rect class="cls-5" x="94.95" y="85.1" width="33.91" height="21.61" rx="6.39" transform="translate(223.81 191.81) rotate(180)"/><line class="cls-3" x1="84.17" y1="89" x2="46.17" y2="89"/><line class="cls-3" x1="84.17" y1="95.99" x2="46.17" y2="95.99"/><line class="cls-3" x1="84.17" y1="102.98" x2="46.17" y2="102.98"/><rect class="cls-6" x="44.64" y="112.38" width="84.22" height="24.04" rx="6.39"/><circle class="cls-7" cx="45.34" cy="25" r="2.16"/><circle class="cls-8" cx="51.69" cy="25" r="2.16"/><circle class="cls-9" cx="58.04" cy="25" r="2.16"/></g></g></svg>